<?xml version="1.0" encoding="utf-8"?>
<!-- Generator: Adobe Illustrator 24.0.1, SVG Export Plug-In . SVG Version: 6.00 Build 0)  -->
<svg version="1.1" id="Layer_1" xmlns="http://www.w3.org/2000/svg" xmlns:xlink="http://www.w3.org/1999/xlink" x="0px" y="0px"
	 viewBox="0 0 500 500" style="enable-background:new 0 0 500 500;" xml:space="preserve">
<style type="text/css">
	.st0{fill:#FAFAFA;}
	.st1{fill:#E0E0E0;}
	.st2{fill:#263238;}
	.st3{fill:#455A64;}
	.st4{fill:#37474F;}
	.st5{fill:#F78DAD;}
	.st6{opacity:0.1;enable-background:new    ;}
	.st7{opacity:0.15;enable-background:new    ;}
	.st8{opacity:0.7;fill:#FFFFFF;enable-background:new    ;}
	.st9{fill:#F0F0F0;}
	.st10{fill:#BA68C8;}
	.st11{display:none;}
	.st12{display:inline;}
	.st13{display:inline;fill:#F78DAD;}
	.st14{display:inline;opacity:0.35;enable-background:new    ;}
	.st15{fill:#E6E6E6;}
	.st16{fill:#FFFFFF;}
	.st17{opacity:0.35;enable-background:new    ;}
	.st18{opacity:0.22;enable-background:new    ;}
	.st19{fill:#FFA8A7;}
	.st20{fill:#F28F8F;}
	.st21{opacity:0.8;fill:#FFFFFF;enable-background:new    ;}
	.st22{opacity:0.6;fill:#FFFFFF;enable-background:new    ;}
	.st23{opacity:0.5;fill:#FFFFFF;enable-background:new    ;}
	.st24{fill:#2D2D2D;}
</style>
<g id="freepik--Floor--inject-20">
	<ellipse id="freepik--floor--inject-20" class="st0" cx="249" cy="344.5" rx="233.2" ry="134.6"/>
</g>
<g id="freepik--Shadows--inject-20">
	<path id="freepik--Shadow--inject-20" class="st1" d="M320.8,401.8l43.5,25.2c1.6,0.8,3.6,0.8,5.2,0l63.9-36.8c1.4-0.8,1.4-2.2,0-3
		L389.8,362c-1.6-0.8-3.6-0.8-5.2,0l-63.9,36.7C319.4,399.6,319.4,400.9,320.8,401.8z"/>
	<path id="freepik--shadow--inject-20" class="st1" d="M100.5,413.3l1.6,0.9c0.9,0.4,1.9,0.4,2.8,0L358.1,268
		c0.4-0.1,0.7-0.6,0.5-1.1c-0.1-0.3-0.3-0.5-0.5-0.5l-1.6-0.9c-0.9-0.5-1.9-0.5-2.8,0L100.5,411.7c-0.4,0.2-0.7,0.6-0.5,1.1
		C100.1,413,100.3,413.2,100.5,413.3z"/>
	<polygon id="freepik--shadow--inject-20_1_" class="st1" points="432.4,281 434.5,278.5 370.9,241.8 366.6,244.3 389.2,257.3 
		367.5,269.8 344.7,256.7 340.4,259.2 405.5,296.8 406.2,295.9 406.5,296.1 431.5,281.7 431.7,281.9 432.1,281.4 432.6,281.1 	"/>
	<ellipse id="freepik--shadow--inject-20_2_" class="st1" cx="428.2" cy="344.9" rx="15.3" ry="8.8"/>
</g>
<g id="freepik--Gears--inject-20">
	<path class="st2" d="M85.6,151.8L85.6,151.8c-0.4-0.2-0.8-0.2-1.1,0.1l-5.4,3.6c-0.7,0.4-1.7,0.2-2.1-0.5c-0.3-0.4-0.6-0.9-1-1.3
		c-0.6-0.7-0.9-1.7-0.6-2.6l8.6-5.4l-6.5-3.7l0,0c-0.1-0.1-0.3-0.1-0.4-0.2l-4.1-0.9c-0.9-0.2-1.8,0.3-2.3,1.1l-3.8,7.3
		c-0.5,0.8-1.3,1.5-2.3,1.7l-0.2,0.1c0.2-0.6,0.3-1.1,0.3-1.7l-6.4-3.7l0,0c-0.4-0.2-0.9-0.1-1.2,0.2l-6.1,4.8
		c-0.7,0.7-1.2,1.6-1.2,2.6l0.4,5.8c0,1-0.4,2-1,2.8c-1,1.2-2,2.4-2.8,3.8c-0.6,0.8-1.5,1.2-2.5,1.3l-3.9-0.2c-1,0-1.8,0.5-2.2,1.4
		l-3.7,8.3c-0.3,0.7-0.1,1.6,0.6,2l0,0l4.3,2.5c0.2,0.4,0.2,0.8,0.2,1.1c-0.3,1.3-0.5,2.6-0.7,3.9c-0.2,1-0.6,1.9-1.3,2.7l-5.4,5
		c-0.7,0.7-1,1.7-0.9,2.7l1,5.9c0,0.3,0.2,0.6,0.5,0.8l0,0l6.5,3.7l0.1-7.4c0.7-0.5,1.7-0.3,2.2,0.5c0,0,0,0,0,0
		c0.3,0.5,0.7,0.9,1.1,1.3c0.7,0.7,0.9,1.7,0.6,2.6l-2.8,7.4c-0.2,0.6,0,1.3,0.5,1.7l0,0l6.4,3.7l1.8-4.8l2.5-6.2
		c0.5-0.8,1.4-1.5,2.3-1.7c0.9-0.2,1.7-0.5,2.5-0.8c0.7-0.3,1.5,0,1.8,0.7c0,0.1,0.1,0.1,0.1,0.2l1.4,4.6c0.1,0.3,0.3,0.6,0.5,0.7
		l0,0l6.5,3.7l-1.1-7.1l2-1.6c0.7-0.7,1.2-1.6,1.2-2.6l-0.4-5.8c0-1,0.4-2,1-2.8c1-1.2,2.5-1.8,3.4-3.1c0.5-0.7,1-1.9,1.9-1.9
		l3.9,0.2c1,0,1.8-0.5,2.2-1.4l3.7-8.3c0.4-0.8,0-1.7-0.8-2.1c0,0,0,0,0,0l-3.2-1.3c-0.8-0.4-1.3-1.3-1.1-2.2
		c0.3-1.3,0.5-2.6,0.7-3.9c0.2-1,0.6-1.9,1.3-2.7l5.4-5c0.5-0.5,0.8-1.1,0.9-1.8l4.9-3.8L85.6,151.8z M61.1,190
		c-6.6,5.2-12.9,3.8-14.1-3.2s4.2-15.8,10.8-21s11.9-4.8,13.1,2.2S67.7,184.8,61.1,190z"/>
	<path class="st3" d="M36.9,188.7l-5.4,4.9c-0.4,0.4-0.7,1-0.8,1.5l7.9,4.6v-0.4c0.7-0.5,1.7-0.3,2.2,0.5c0,0,0,0,0,0l0,0l7.7-4.4
		L36.9,188.7z"/>
	<path class="st3" d="M50.6,173.8c0.6-0.9,1.3-1.8,2-2.7l-7.6-4.4c-0.4,0.2-0.7,0.2-1.1,0.2l-3.9-0.2c-0.6,0-1.2,0.2-1.6,0.6
		l11.7,6.8L50.6,173.8z"/>
	<path class="st3" d="M92.1,155.5c-0.4-0.2-0.8-0.1-1.1,0.1l-5.4,3.6c-0.7,0.5-1.7,0.2-2.2-0.5c-0.3-0.5-0.7-0.9-1.1-1.3
		c-0.6-0.7-0.9-1.7-0.6-2.6l0.5-1.4l2.3-1.5c0.3-0.3,0.8-0.3,1.1-0.1l0,0L92.1,155.5z"/>
	<path class="st3" d="M76.1,154c-0.1-0.1-0.1-0.1-0.2-0.2c-0.6-0.7-0.9-1.7-0.6-2.6l8.6-5.4l-6.4-3.8l0,0c-0.1-0.1-0.3-0.1-0.4-0.2
		l-4.1-0.9c-0.9-0.2-1.8,0.3-2.3,1.1l-3.8,7.3c-0.2,0.4-0.5,0.7-0.9,1l8.7,5L76.1,154z"/>
	<path class="st3" d="M49.8,152.3l7.9,4.6l6.5-6c0.1-0.5,0.2-1,0.3-1.5l-6.4-3.7l0,0c-0.4-0.2-0.9-0.1-1.2,0.2l-6.1,4.8
		C50.4,151.1,50,151.7,49.8,152.3z"/>
	<path class="st4" d="M93.6,162.3l-1-5.9c0-0.6-0.5-1-1.1-0.9c-0.2,0-0.4,0.1-0.5,0.2l-5.4,3.6c-0.7,0.5-1.7,0.2-2.2-0.5
		c-0.3-0.5-0.7-0.9-1.1-1.3c-0.7-0.7-0.9-1.7-0.6-2.6l2.8-7.5c0.3-0.7,0-1.5-0.7-1.8c-0.1,0-0.2-0.1-0.3-0.1l-4.1-0.9
		c-0.9-0.2-1.8,0.3-2.3,1.1l-3.8,7.3c-0.5,0.8-1.4,1.5-2.3,1.7c-0.9,0.2-1.7,0.5-2.5,0.8c-0.7,0.3-1.5,0-1.8-0.6
		c0-0.1-0.1-0.2-0.1-0.2l-1.4-4.6c-0.1-0.5-0.6-0.9-1.1-0.8c-0.2,0-0.4,0.1-0.6,0.3l-6.1,4.8c-0.8,0.7-1.2,1.6-1.2,2.6l0.4,5.8
		c0,1-0.3,2-1,2.8c-1,1.2-2,2.5-2.8,3.8c-0.6,0.8-1.5,1.2-2.5,1.2l-3.9-0.2c-1,0-1.8,0.5-2.3,1.4l-3.7,8.3c-0.4,0.8,0,1.7,0.8,2.1
		c0,0,0,0,0,0l3.2,1.4c0.8,0.4,1.3,1.3,1.1,2.2c-0.3,1.3-0.5,2.6-0.7,3.9c-0.2,1-0.6,1.9-1.3,2.7l-5.4,5c-0.7,0.7-1,1.7-0.9,2.7
		l1,5.9c0,0.6,0.5,1,1.1,0.9c0.2,0,0.4-0.1,0.5-0.2l5.4-3.6c0.7-0.5,1.7-0.2,2.2,0.5c0.3,0.5,0.6,0.9,1,1.3c0.6,0.7,0.9,1.7,0.6,2.6
		l-2.8,7.4c-0.3,0.7,0,1.5,0.7,1.8c0.1,0,0.2,0.1,0.3,0.1l4.1,0.9c0.9,0.2,1.8-0.3,2.3-1.1l3.8-7.3c0.5-0.8,1.3-1.5,2.3-1.7
		c0.9-0.2,1.7-0.5,2.5-0.8c0.7-0.3,1.5,0,1.8,0.7c0,0.1,0.1,0.1,0.1,0.2l1.4,4.6c0.1,0.5,0.6,0.9,1.1,0.8c0.2,0,0.4-0.1,0.6-0.3
		l6.1-4.8c0.7-0.7,1.2-1.6,1.2-2.6l-0.4-5.8c0-1,0.4-2,1-2.8c1-1.2,1.9-2.4,2.8-3.8c0.6-0.8,1.5-1.2,2.5-1.3l3.9,0.2
		c1,0,1.8-0.5,2.3-1.4l3.7-8.3c0.4-0.8,0-1.7-0.8-2.1c0,0,0,0,0,0l-3.2-1.4c-0.8-0.4-1.3-1.3-1.1-2.2c0.3-1.3,0.5-2.7,0.7-4
		c0.2-1,0.6-1.9,1.3-2.7l5.4-5C93.3,164.2,93.7,163.2,93.6,162.3z M67.5,193.7c-6.6,5.2-13,3.8-14.2-3.2s3.2-16.8,9.8-22
		s12.9-3.8,14.1,3.2S74.1,188.5,67.5,193.7z"/>
	<path class="st2" d="M143.4,223.1l-6.4-3.6l0,0c-0.3-0.2-0.7-0.2-1,0l-11.4,5.2c-0.7,0.3-1.5,0-1.8-0.6c0-0.1-0.1-0.2-0.1-0.2
		c-0.6-2-1.5-3.9-2.6-5.7c-0.5-0.8-0.5-1.9-0.2-2.8l7.6-15.4c0.4-0.8,0.1-1.8-0.7-2.2l-8.3-4.8c-0.8-0.4-1.8-0.2-2.3,0.5l-9.5,14.3
		c-0.6,0.8-1.5,1.2-2.5,1.2c-1.1,0-2.2,0-3.3,0.2v-10.4l-6.3-3.7l0,0c-0.3-0.1-0.7-0.1-1,0.1l-12.8,7.4c-0.8,0.5-1.4,1.4-1.5,2.4
		l-1.3,14.3c-0.1,1-0.6,1.9-1.3,2.7c-2.5,2.4-4.9,4.9-7.1,7.6c-0.6,0.7-1.6,1-2.5,0.7l-8.2-2.9c-0.9-0.3-1.8,0.1-2.3,0.9l-9.4,16.4
		c-0.4,0.8-0.3,1.8,0.4,2.4l6.6,5.7c0.7,0.7,0.9,1.6,0.6,2.5c-1.2,3.3-2.2,6.6-3,10c-0.3,1-0.8,1.9-1.6,2.5l-11.7,8.2
		c-0.8,0.6-1.3,1.5-1.3,2.5v14.8c0,0.4,0.1,0.7,0.5,1l0,0l6.3,3.6l9.4-4.5c0.4,0.7,0.7,1.5,1.2,2.2c0.5,0.8,0.5,1.9,0.2,2.8
		L47,313.7c-0.4,0.8-0.1,1.8,0.7,2.2l8.3,4.8c0.8,0.4,1.8,0.2,2.3-0.5l9.5-14.3c0.6-0.8,1.5-1.2,2.5-1.2c2.1,0,4.2-0.2,6.2-0.6
		c0.7-0.2,1.5,0.2,1.7,1c0,0.1,0,0.2,0,0.3l1.2,12.5c0,0.4,0.2,0.7,0.5,0.9l0,0l6.3,3.6l7.6-11.1c0.8-0.5,1.4-1.4,1.5-2.4l1.3-14.3
		c0.2-0.9,0.8-1.8,1.6-2.2c3.8-1.6,7.2-4,10-7c0.7-0.7,1.6-0.9,2.6-0.7l5.1,1.8c0.9,0.3,1.8-0.1,2.3-0.9l9.4-16.4
		c0.4-0.8,0.3-1.8-0.4-2.4l-4.3-3.7c-0.7-0.7-0.9-1.6-0.7-2.6c0.9-3.9,1.3-7.9,1.2-11.9c0-1,0.5-1.9,1.2-2.5l11.7-8.3
		c0.8-0.6,1.3-1.5,1.3-2.5l5.6-6.7L143.4,223.1z M87.3,281.8c-12,6.9-19.4,2-19.4-11.8s9.9-30.8,21.9-37.7s19.2-1.9,19.2,12
		C109,258.1,99.3,274.9,87.3,281.8z"/>
	<path class="st3" d="M125.1,205l2.5-5.1c0.4-0.8,0.1-1.8-0.7-2.2l-8.3-4.8c-0.8-0.4-1.8-0.2-2.3,0.5l-9.5,14.3
		c-0.2,0.2-0.4,0.4-0.6,0.6l10.6,6.1L125.1,205z"/>
	<path class="st3" d="M51,266.6c-0.2,0.4-0.5,0.7-0.9,1l-11.7,8.2c-0.3,0.2-0.6,0.5-0.8,0.9l7.2,4.1l15.6-8.9L51,266.6z"/>
	<path class="st3" d="M58.2,227.1c-0.7,0-1.3,0.4-1.7,1l-9.4,16.4c-0.2,0.4-0.3,0.8-0.2,1.2l8.1,4.7l12.9-17.5L58.2,227.1z"/>
	<path class="st3" d="M79.6,204.1l10.1,5.8l11.4-6.6v-4.6l-6.3-3.7l0,0c-0.3-0.1-0.7-0.1-1,0.1l-12.8,7.4
		C80.3,202.9,79.9,203.4,79.6,204.1z"/>
	<path class="st4" d="M143.8,238.9V224c0.1-0.5-0.3-1-0.9-1.1c-0.2,0-0.4,0-0.6,0.1l-11.4,5.2c-0.7,0.3-1.5,0-1.8-0.7
		c0-0.1-0.1-0.2-0.1-0.2c-0.6-2-1.5-3.9-2.5-5.7c-0.5-0.8-0.6-1.9-0.2-2.8l7.6-15.4c0.4-0.8,0.1-1.8-0.7-2.2l-8.2-4.7
		c-0.8-0.4-1.8-0.2-2.3,0.5l-9.5,14.3c-0.6,0.8-1.5,1.2-2.5,1.2c-2.1,0-4.2,0.2-6.2,0.6c-0.7,0.2-1.5-0.2-1.7-1c0-0.1,0-0.2,0-0.3
		l-1.3-12.5c0-0.6-0.5-1-1-0.9c-0.2,0-0.3,0.1-0.5,0.2l-12.8,7.4c-0.8,0.5-1.4,1.4-1.5,2.4l-1.3,14.3c-0.2,1-0.7,2-1.4,2.7
		c-2.5,2.4-4.9,4.9-7.1,7.6c-0.6,0.7-1.6,1-2.5,0.7l-8.2-2.9c-0.9-0.3-1.8,0.1-2.3,0.9l-9.4,16.4c-0.4,0.8-0.3,1.8,0.4,2.4l6.6,5.7
		c0.7,0.7,0.9,1.6,0.6,2.5c-1.2,3.3-2.2,6.6-3,10c-0.3,1-0.8,1.9-1.7,2.5l-11.7,8.2c-0.8,0.6-1.3,1.5-1.3,2.5v14.8
		c0,0.6,0.4,1,0.9,1.1c0.2,0,0.4,0,0.5-0.1l11.4-5.1c0.7-0.3,1.5,0,1.8,0.7c0,0.1,0.1,0.2,0.1,0.2c0.6,2,1.5,3.9,2.5,5.7
		c0.5,0.8,0.6,1.9,0.2,2.8l-7.6,15.4c-0.4,0.8-0.1,1.8,0.7,2.2l8.3,4.8c0.8,0.4,1.8,0.2,2.3-0.5l9.5-14.3c0.6-0.8,1.5-1.2,2.5-1.2
		c2.1,0,4.2-0.2,6.2-0.6c0.7-0.2,1.5,0.2,1.7,0.9c0,0.1,0,0.2,0.1,0.3l1.3,12.5c0,0.6,0.5,1,1,0.9c0.2,0,0.3-0.1,0.5-0.2l12.8-7.4
		c0.8-0.5,1.4-1.4,1.5-2.4l1.3-14.3c0.2-1,0.6-1.9,1.3-2.7c2.5-2.4,4.9-4.9,7.1-7.5c0.6-0.7,1.6-1,2.5-0.7l8.2,2.9
		c0.9,0.3,1.8-0.1,2.3-0.9l9.4-16.4c0.4-0.8,0.3-1.8-0.4-2.4l-6.6-5.7c-0.7-0.7-0.9-1.6-0.6-2.5c1.2-3.2,2.2-6.6,3-9.9
		c0.3-1,0.8-1.9,1.6-2.5l11.7-8.3C143.3,240.7,143.8,239.8,143.8,238.9z M93.6,285.5c-12,6.9-21.7,1.3-21.7-12.5s9.7-30.7,21.7-37.6
		s21.7-1.3,21.7,12.5C115.3,261.7,105.6,278.5,93.6,285.5z"/>
	<path class="st3" d="M143.4,223.1L143.4,223.1c-0.3-0.2-0.7-0.2-1,0l-11.4,5.1c-0.7,0.3-1.5,0.1-1.8-0.6c0-0.1-0.1-0.2-0.1-0.3
		c-0.4-1.4-1-2.7-1.6-4l8.7-3.9c0.3-0.2,0.7-0.2,1,0l0,0L143.4,223.1z"/>
</g>
<g id="freepik--Ladder--inject-20">
	<path class="st4" d="M406.4,146.5l-35.7,97.2l0,0c-0.1,0.3-0.3,0.5-0.6,0.7c-1,0.5-2.2,0.5-3.2,0c-0.3-0.2-0.6-0.5-0.7-0.8
		c0-0.1,0-0.2,0-0.3c0-0.2,0.1-0.5,0.1-0.7l35.8-97.8c0.4-1.2,1.8-1.8,3-1.4C406.2,144,406.8,145.3,406.4,146.5L406.4,146.5
		L406.4,146.5z"/>
	<rect x="373.6" y="203" transform="matrix(0.5 -0.866 0.866 0.5 -5.4645 437.9615)" class="st4" width="6" height="41.4"/>
	<rect x="399.6" y="188" transform="matrix(0.5 -0.866 0.866 0.5 20.5955 453.0015)" class="st4" width="6" height="41.4"/>
	<path class="st3" d="M377.2,139.8l19.1-11c2.3-1.5,5.4-0.9,6.9,1.4c0.4,0.6,0.7,1.3,0.8,2l31.7,148.4c0,0.1,0,0.2,0,0.3
		c0,0.1,0,0.2,0,0.3c-0.1,0.3-0.3,0.6-0.7,0.8c-1,0.5-2.2,0.5-3.3,0c-0.3-0.1-0.5-0.4-0.6-0.7c0,0,0-0.1,0-0.1l-31.7-148
		c0-0.2-0.1-0.4-0.3-0.6c-0.2,0-0.4,0-0.6,0.2l-19.1,11"/>
	<path class="st5" d="M408.4,281.6l-11.6-6.7c-0.4-0.3-0.7-0.7-0.7-1.2v-0.3c0-0.5,0.3-0.9,0.7-1.2l27.9-16.1c0.4-0.2,0.9-0.2,1.4,0
		l11.6,6.7c0.4,0.3,0.7,0.7,0.7,1.2v0.3c0,0.5-0.3,0.9-0.7,1.2l-27.9,16.1C409.4,281.8,408.9,281.8,408.4,281.6z"/>
	<path class="st6" d="M396.3,272.7c-0.1,0.2-0.2,0.4-0.2,0.7v0.3c0,0.5,0.3,0.9,0.7,1.2l11.6,6.7c0.2,0.1,0.5,0.2,0.7,0.2v-1.6
		L396.3,272.7z"/>
	<path class="st7" d="M409.1,280.1v1.6c0.2,0,0.5,0,0.7-0.2l14-8.1l14-8.1c0.4-0.3,0.7-0.7,0.7-1.2V264c0-0.2-0.1-0.5-0.2-0.7
		L409.1,280.1z"/>
	<path class="st5" d="M403.4,258l-11.6-6.7c-0.4-0.3-0.7-0.7-0.7-1.2v-0.3c0-0.5,0.3-0.9,0.7-1.2l27.9-16.1c0.4-0.2,1-0.2,1.4,0
		l11.6,6.7c0.4,0.3,0.7,0.7,0.7,1.2v0.3c0,0.5-0.3,0.9-0.7,1.2L404.8,258C404.3,258.2,403.8,258.2,403.4,258z"/>
	<path class="st6" d="M391.2,249.1c-0.1,0.2-0.2,0.4-0.2,0.7v0.3c0,0.5,0.3,0.9,0.7,1.2l11.6,6.7c0.2,0.1,0.4,0.2,0.7,0.2v-1.6
		L391.2,249.1z"/>
	<path class="st7" d="M404.1,256.5v1.6c0.2,0,0.5-0.1,0.7-0.2l14-8.1l14-8.1c0.4-0.3,0.7-0.7,0.7-1.2v-0.3c0-0.2-0.1-0.5-0.2-0.7
		L404.1,256.5z"/>
	<path class="st5" d="M398.3,234.4l-11.6-6.7c-0.4-0.3-0.7-0.7-0.7-1.2v-0.3c0-0.5,0.3-0.9,0.7-1.2l27.9-16.1c0.4-0.2,1-0.2,1.4,0
		l11.6,6.7c0.4,0.3,0.7,0.7,0.7,1.2v0.3c0,0.5-0.3,0.9-0.7,1.2l-27.9,16.1C399.3,234.6,398.8,234.6,398.3,234.4z"/>
	<path class="st6" d="M386.2,225.5c-0.1,0.2-0.2,0.4-0.2,0.7v0.3c0,0.5,0.3,0.9,0.7,1.2l5.8,3.4l5.8,3.4c0.2,0.1,0.5,0.2,0.7,0.2
		v-1.6L386.2,225.5z"/>
	<path class="st7" d="M399,232.9v1.6c0.2,0,0.5-0.1,0.7-0.2l14-8.1l14-8.1c0.4-0.3,0.7-0.7,0.7-1.2v-0.3c0-0.2-0.1-0.5-0.2-0.7
		L399,232.9z"/>
	<path class="st5" d="M393.3,210.8l-11.6-6.7c-0.4-0.3-0.7-0.7-0.7-1.2v-0.3c0-0.5,0.3-0.9,0.7-1.2l27.9-16.1c0.4-0.2,1-0.2,1.4,0
		l11.6,6.7c0.4,0.3,0.7,0.7,0.7,1.2v0.3c0,0.5-0.3,0.9-0.7,1.2l-27.9,16.1C394.2,211,393.7,211,393.3,210.8z"/>
	<path class="st7" d="M394,209.3v1.7c0.2,0,0.5,0,0.7-0.2l14-8.1l14-8.1c0.4-0.3,0.7-0.7,0.7-1.2v-0.3c0-0.2-0.1-0.5-0.2-0.7
		L394,209.3z"/>
	<path class="st6" d="M381.2,201.9c-0.1,0.2-0.2,0.4-0.2,0.7v0.3c0,0.5,0.3,0.9,0.7,1.2l11.6,6.7c0.2,0.1,0.5,0.2,0.7,0.2v-1.6
		L381.2,201.9z"/>
	<path class="st5" d="M388.2,187.2l-19.3-11.2c-0.4-0.3-0.7-0.7-0.7-1.2v-0.3c0-0.5,0.3-0.9,0.7-1.2l27.9-16.1c0.4-0.2,1-0.2,1.4,0
		l19.3,11.2c0.4,0.3,0.7,0.7,0.7,1.2v0.3c0,0.5-0.3,0.9-0.7,1.2l-27.9,16.1C389.2,187.4,388.7,187.4,388.2,187.2z"/>
	<path class="st7" d="M388.9,185.7v1.6c0.2,0,0.5-0.1,0.7-0.2l14-8.1l14-8.1c0.4-0.3,0.7-0.7,0.7-1.2v-0.3c0-0.2-0.1-0.5-0.2-0.7
		L388.9,185.7z"/>
	<path class="st6" d="M368.4,173.9c-0.1,0.2-0.2,0.4-0.2,0.7v0.3c0,0.5,0.3,0.9,0.7,1.2l19.3,11.2c0.2,0.1,0.5,0.2,0.7,0.2v-1.6
		L368.4,173.9z"/>
	<path class="st4" d="M380.4,161.5l-35.7,97.1l0,0l-0.1,0.2c-0.1,0.2-0.3,0.4-0.6,0.6c-1,0.5-2.2,0.5-3.3,0
		c-0.3-0.2-0.6-0.4-0.7-0.8c0-0.1,0-0.2,0-0.3c0-0.2,0-0.5,0.1-0.7l35.8-97.7c0.5-1.2,1.9-1.7,3-1.2
		C380.1,159.2,380.7,160.4,380.4,161.5L380.4,161.5z"/>
	<path class="st3" d="M379.5,143.8c-1.1,0.8-1.7,2.1-1.5,3.4l31.7,148.4c0,0.1,0,0.2,0,0.4v0.3c-0.1,0.4-0.3,0.6-0.7,0.8
		c-1,0.5-2.2,0.5-3.2,0c-0.3-0.1-0.5-0.4-0.6-0.7l0,0v-0.2l-31.7-148c-0.6-3.3,0.9-6.6,3.7-8.4"/>
</g>
<path class="st1" d="M359.5,27c0.1-1.2-0.4-2.3-1.4-3l-4.4-2.5c-1.1-0.5-2.3-0.4-3.3,0.3L103.8,164.3c-2.7,1.8-4.4,4.7-4.6,8v219.8
	c-0.1,1.2,0.4,2.3,1.4,3l4.3,2.5c1.1,0.5,2.3,0.4,3.3-0.3l246.8-142.5c2.7-1.8,4.5-4.7,4.6-8L359.5,27z"/>
<path class="st5" d="M358.1,24c-1.1-0.5-2.3-0.4-3.3,0.3L108.1,166.8c-1.4,0.9-2.5,2-3.3,3.4l-4.3-2.5c0.8-1.4,1.9-2.6,3.3-3.5
	L350.5,21.8c0.9-0.7,2.2-0.8,3.3-0.3L358.1,24z"/>
<path class="st8" d="M358.1,24c-1.1-0.5-2.3-0.4-3.3,0.3L108.1,166.8c-1.4,0.9-2.5,2-3.3,3.4l-4.3-2.5c0.8-1.4,1.9-2.6,3.3-3.5
	L350.5,21.8c0.9-0.7,2.2-0.8,3.3-0.3L358.1,24z"/>
<path class="st9" d="M108.1,166.8L354.9,24.3c2.6-1.5,4.6-0.3,4.6,2.7v219.8c-0.2,3.3-1.9,6.2-4.6,8L108.1,397.3
	c-2.6,1.5-4.6,0.3-4.6-2.7V174.8C103.6,171.6,105.4,168.6,108.1,166.8z"/>
<path class="st5" d="M104.8,170.2c-0.8,1.4-1.3,3-1.3,4.6v14.7l-4.3-2.5v-14.7c0.1-1.6,0.5-3.2,1.3-4.6L104.8,170.2z"/>
<path class="st6" d="M104.8,170.3c-0.8,1.4-1.3,3-1.3,4.6v14.7l-4.3-2.5v-14.7c0.1-1.6,0.5-3.2,1.3-4.6L104.8,170.3z"/>
<path class="st5" d="M359.5,27c0-3-2.1-4.1-4.6-2.7L108.1,166.8c-2.7,1.8-4.4,4.8-4.6,8v14.7l256-147.8L359.5,27z"/>
<polygon class="st5" points="112.1,194.5 112.1,334.8 207.6,279.7 207.6,174.6 146.9,174.5 "/>
<path class="st0" d="M173,218.7c-0.7,0-1.4-0.2-2.1-0.5c-1.5-0.9-2.3-2.6-2.3-4.9l0,0c0.3-4.8,2.8-9.3,6.9-11.9
	c2-1.1,3.9-1.3,5.4-0.4s2.3,2.6,2.3,4.9c-0.3,4.8-2.8,9.3-6.9,11.9C175.3,218.3,174.2,218.7,173,218.7z M178.8,201.9
	c-0.9,0-1.8,0.3-2.5,0.8c-3.6,2.4-5.9,6.3-6.1,10.6l0,0c0,1.7,0.5,3,1.5,3.6s2.4,0.4,3.9-0.4c3.6-2.4,5.9-6.3,6.1-10.6
	c0-1.7-0.6-3-1.5-3.6C179.7,202,179.3,201.9,178.8,201.9L178.8,201.9z"/>
<path class="st0" d="M120.8,320.5c-0.1,0-0.3,0-0.4-0.1c-0.2-0.1-0.4-0.4-0.4-0.6V199.5c0-0.3,0.1-0.5,0.4-0.6l39.1-22.6
	c0.1-0.1,0.3-0.1,0.4-0.1l39.1,2.5c0.4,0,0.7,0.4,0.7,0.8v95.2c0,0.3-0.1,0.5-0.4,0.6l-78.1,45.1C121.1,320.5,121,320.5,120.8,320.5
	z M121.6,200v118.5l76.6-44.2v-94.1l-38.1-2.4L121.6,200z"/>
<path class="st0" d="M165.8,249.4c-0.2,0-0.3,0-0.4-0.1c-0.3-0.2-0.4-0.7-0.2-1c0,0,0,0,0,0l15.8-21.6c0.2-0.3,0.7-0.4,1-0.2
	l17.4,12.5c0.3,0.2,0.4,0.7,0.2,1.1c-0.2,0.3-0.7,0.4-1,0.2l-16.8-12.1l-15.3,21C166.3,249.3,166.1,249.5,165.8,249.4z"/>
<path class="st0" d="M120.8,285.5c-0.1,0-0.2,0-0.3-0.1c-0.4-0.2-0.5-0.6-0.3-1l26-50.1c0.1-0.2,0.3-0.3,0.5-0.4
	c0.2,0,0.4,0,0.6,0.1l30.4,22.6c0.3,0.2,0.4,0.7,0.2,1c-0.2,0.3-0.7,0.4-1.1,0.1l0,0l-29.7-22l-25.6,49.3
	C121.3,285.3,121.1,285.5,120.8,285.5z"/>
<path class="st6" d="M146.9,174.5c0,0,15,4.6,19.6,12.5c4,6.9,4.1,10,4.1,10s25.7-5.4,37-22.4L146.9,174.5z"/>
<path class="st10" d="M146.9,174.5c0,0,23.5,2.5,30.4,23.7c13-4.4,23.5-11.9,30.4-23.6L146.9,174.5z"/>
<path class="st8" d="M146.9,174.5c0,0,23.5,2.5,30.4,23.7c13-4.4,23.5-11.9,30.4-23.6L146.9,174.5z"/>
<path class="st10" d="M295.1,135.2c-1,0.5-1.7-0.1-1.7-1.4l0.7-13.3c0.1-1.3,0.8-2.5,1.9-3.2c1-0.5,1.7,0.1,1.7,1.4L297,132
	C296.9,133.3,296.2,134.5,295.1,135.2z"/>
<path class="st10" d="M278.5,149.1c-0.9,1.1-2,1.3-2.4,0.4l-4.5-8.9c-0.4-1.2,0-2.6,0.8-3.5c0.9-1.1,2-1.2,2.4-0.4l4.5,8.9
	C279.7,146.9,279.4,148.2,278.5,149.1z"/>
<path class="st10" d="M265.8,170.6c-0.6,1.4-1.7,2.3-2.5,2.1l-8.6-2.1c-0.8-0.2-1-1.5-0.5-2.8s1.7-2.3,2.5-2.1l8.6,2.1
	C266.1,168,266.4,169.2,265.8,170.6z"/>
<path class="st10" d="M260.3,193.9c-0.1,1.3-0.8,2.5-1.9,3.2l-10.3,5.2c-1,0.5-1.7-0.1-1.7-1.4c0.1-1.3,0.8-2.5,1.9-3.2l10.3-5.2
	C259.6,192,260.4,192.6,260.3,193.9z"/>
<path class="st10" d="M263.5,212.7c0.4,1.2,0,2.6-0.8,3.5l-9.3,11.2c-0.9,1.1-2,1.2-2.4,0.4c-0.3-1.2,0-2.6,0.8-3.5l9.3-11.2
	C262,212,263.1,211.8,263.5,212.7z"/>
<path class="st10" d="M319.9,184.1c0.6-1.4,1.7-2.3,2.5-2.1l8.6,2.1c0.8,0.2,1,1.5,0.5,2.8s-1.7,2.3-2.5,2.1l-8.6-2.1
	C319.6,186.7,319.4,185.4,319.9,184.1z"/>
<path class="st10" d="M325.4,160.8c0.1-1.3,0.8-2.5,1.9-3.2l10.3-5.2c1-0.5,1.7,0.1,1.7,1.4c-0.1,1.3-0.8,2.5-1.9,3.2l-10.3,5.2
	C326.1,162.7,325.3,162.1,325.4,160.8z"/>
<path class="st10" d="M322.2,142c-0.3-1.2,0-2.6,0.8-3.5l9.3-11.2c0.9-1.1,2-1.2,2.4-0.4c0.4,1.2,0,2.6-0.8,3.5l-9.3,11.2
	C323.7,142.6,322.6,142.8,322.2,142z"/>
<path class="st10" d="M311.1,132.6c-0.8-0.2-1-1.5-0.5-2.8l5.8-14.2c0.6-1.4,1.7-2.3,2.5-2.1s1,1.5,0.5,2.8l-5.8,14.2
	C313,131.9,311.9,132.8,311.1,132.6z"/>
<path class="st3" d="M295.1,135.2c-1,0.5-1.7-0.1-1.7-1.4l0.7-13.3c0.1-1.3,0.8-2.5,1.9-3.2c1-0.5,1.7,0.1,1.7,1.4L297,132
	C296.9,133.3,296.2,134.5,295.1,135.2z"/>
<path class="st3" d="M278.5,149.1c-0.9,1.1-2,1.3-2.4,0.4l-4.5-8.9c-0.4-1.2,0-2.6,0.8-3.5c0.9-1.1,2-1.2,2.4-0.4l4.5,8.9
	C279.7,146.9,279.4,148.2,278.5,149.1z"/>
<path class="st3" d="M265.8,170.6c-0.6,1.4-1.7,2.3-2.5,2.1l-8.6-2.1c-0.8-0.2-1-1.5-0.5-2.8s1.7-2.3,2.5-2.1l8.6,2.1
	C266.1,168,266.4,169.2,265.8,170.6z"/>
<path class="st3" d="M260.3,193.9c-0.1,1.3-0.8,2.5-1.9,3.2l-10.3,5.2c-1,0.5-1.7-0.1-1.7-1.4c0.1-1.3,0.8-2.5,1.9-3.2l10.3-5.2
	C259.6,192,260.4,192.6,260.3,193.9z"/>
<path class="st3" d="M263.5,212.7c0.4,1.2,0,2.6-0.8,3.5l-9.3,11.2c-0.9,1.1-2,1.2-2.4,0.4c-0.3-1.2,0-2.6,0.8-3.5l9.3-11.2
	C262,212,263.1,211.8,263.5,212.7z"/>
<path class="st3" d="M319.9,184.1c0.6-1.4,1.7-2.3,2.5-2.1l8.6,2.1c0.8,0.2,1,1.5,0.5,2.8s-1.7,2.3-2.5,2.1l-8.6-2.1
	C319.6,186.7,319.4,185.4,319.9,184.1z"/>
<path class="st3" d="M325.4,160.8c0.1-1.3,0.8-2.5,1.9-3.2l10.3-5.2c1-0.5,1.7,0.1,1.7,1.4c-0.1,1.3-0.8,2.5-1.9,3.2l-10.3,5.2
	C326.1,162.7,325.3,162.1,325.4,160.8z"/>
<path class="st3" d="M322.2,142c-0.3-1.2,0-2.6,0.8-3.5l9.3-11.2c0.9-1.1,2-1.2,2.4-0.4c0.4,1.2,0,2.6-0.8,3.5l-9.3,11.2
	C323.7,142.6,322.6,142.8,322.2,142z"/>
<path class="st3" d="M311.1,132.6c-0.8-0.2-1-1.5-0.5-2.8l5.8-14.2c0.6-1.4,1.7-2.3,2.5-2.1s1,1.5,0.5,2.8l-5.8,14.2
	C313,131.9,311.9,132.8,311.1,132.6z"/>
<g class="st11">
	<g class="st12">
		<path class="st5" d="M305.8,174.9c-0.7,0.6-1.9,2.4-3.2,5.8c1.5-0.7,2.7-1.8,3.6-3.3c0.2-0.4,0.9-1.7,0.4-2.4
			c-0.1-0.2-0.4-0.3-0.6-0.2C305.9,174.8,305.9,174.9,305.8,174.9z"/>
		<path class="st5" d="M293.2,171.3c-0.5,0.2-0.8,0.7-0.9,1.2c-0.3,1.4-0.1,2.9,0.6,4.2c0.7-1.6,1.1-3.3,1.1-5
			C293.9,171.2,293.7,171,293.2,171.3z"/>
		<path class="st5" d="M279.5,188.3l-0.2,0.1c-0.3,0.2-0.5,0.5-0.6,0.9c-0.4,0.7-0.3,1.5,0.2,2.1c0.6,0.6,1.8,0.6,3.4-0.3
			C281.2,188.9,280.2,188.1,279.5,188.3z"/>
		<path class="st5" d="M294.8,141.6c-14.6,7.4-27.2,28.7-28.2,47.5c-1.5,27.1,15.6,22.8,15,33.7c-0.2,1.6,0.8,3.1,2.4,3.4
			c3.4,0.9,9.2-2.1,12.9-6.5c1.6-1.7,2.6-3.9,2.9-6.2l0,0c0.6-10.9,18.1-24.2,19.5-51.3C320.3,143.5,309.3,134.2,294.8,141.6z
			 M307.6,178.5c-1.3,2.5-3.5,4.4-6.2,5.4c-0.7,2.1-1.3,4.5-2,7.4c-1.8,7.9-2.9,16-3.4,24.1c0,0.8-0.5,1.6-1.1,2l0,0
			c-0.6,0.3-1-0.1-1-0.8c0.5-8.4,1.7-16.7,3.5-24.9c0.6-2.7,1.2-5.2,2-7.4c-0.9,0-1.8-0.1-2.7-0.4c-1.5-0.5-2.9-1.3-4-2.5
			c-1.3,2.4-2.8,4.7-4.5,6.8c-0.9,1.1-1.8,2.2-2.9,3.2c0.5,1.9,1,3.8,1.2,5.8c1.1,7.5,1.4,15,1,22.6c-0.1,0.8-0.5,1.5-1.2,1.9
			c-0.6,0.3-1-0.1-1-0.9c0.4-7.3,0.1-14.6-1-21.9c-0.3-1.9-0.7-3.9-1.3-5.8c-2.7,1.9-4.8,1.9-6,0.8s-1.2-3.4-0.2-5.6
			c0.5-1.4,1.6-2.5,3-3.1c1.7-0.4,3.2,1,4.5,4c0.9-0.9,1.8-1.8,2.6-2.9c1.6-2.1,3.1-4.3,4.3-6.6c-1.3-2.1-1.7-4.7-1.2-7.1
			c0.4-1.8,1.5-3.4,3.1-4.3c1.4-0.7,2.5-0.2,2.8,1.3c0.3,1.8-0.4,5-2,8.7c1,1.2,2.3,2,3.8,2.5c0.8,0.2,1.6,0.3,2.5,0.3
			c1.6-4.4,3.4-7.6,5.2-8.9c1.2-0.9,2.2-0.8,2.9,0.1C309.3,173.7,309,176.1,307.6,178.5z"/>
	</g>
	<path class="st13" d="M299.9,217l-0.5,8.7c-0.3,2.4-1.4,4.6-3,6.4c-3.8,4.6-9.8,7.6-13.3,6.7c-1.8-0.4-2.6-1.9-2.4-3.8l0.4-7.8
		c0.1,1.4,1.1,2.6,2.5,2.9c3.5,0.9,9.5-2.1,13.3-6.7C298.5,221.6,299.6,219.4,299.9,217z"/>
	<path class="st14" d="M299.9,217l-0.5,8.7c-0.3,2.4-1.4,4.6-3,6.4c-3.8,4.6-9.8,7.6-13.3,6.7c-1.8-0.4-2.6-1.9-2.4-3.8l0.4-7.8
		c0.1,1.4,1.1,2.6,2.5,2.9c3.5,0.9,9.5-2.1,13.3-6.7C298.5,221.6,299.6,219.4,299.9,217z"/>
</g>
<g id="freepik--paint-pot--inject-20_1_">
	<g id="freepik--paint-pot--inject-20">
		<path class="st4" d="M441.2,323l-25.5-0.4l-0.2,20.9l0,0c0,1.9,1.2,3.8,3.7,5.2c5,2.9,13,3,18.1,0.2c2.5-1.4,3.8-3.3,3.8-5.2
			L441.2,323z"/>
		<path class="st3" d="M419.5,317.5c-5,2.8-5.1,7.5-0.1,10.4s13,3,18.1,0.2s5.1-7.5,0.1-10.4S424.5,314.6,419.5,317.5z"/>
		<path class="st2" d="M440.1,322.9c0,0.3-0.1,0.7-0.2,1c-0.6,1.4-1.7,2.6-3.1,3.2c-2.6,1.3-5.6,2-8.5,1.9c-2.9,0-5.8-0.7-8.4-2.1
			c-1.4-0.7-2.4-1.8-3-3.2c-0.1-0.3-0.2-0.7-0.2-1.1c0-1.6,1.2-3.1,3.2-4.2c2.6-1.4,5.5-2,8.5-1.9c3,0,5.9,0.7,8.5,2.1
			C439,319.8,440.2,321.4,440.1,322.9z"/>
		<path class="st5" d="M440,323.9c-0.6,1.4-1.7,2.6-3.1,3.2c-2.6,1.3-5.6,2-8.5,1.9c-2.9,0-5.8-0.7-8.4-2.1c-1.4-0.7-2.4-1.8-3-3.2
			c0.6-1.4,1.7-2.6,3.1-3.2c2.6-1.4,5.5-2,8.5-1.9c2.9,0,5.9,0.7,8.5,2.1C438.4,321.4,439.4,322.5,440,323.9z"/>
		<path class="st2" d="M433.9,330.8c0.6-0.3,1,0,1,0.6c0,0.7-0.4,1.3-1,1.7c-0.6,0.3-1,0-1-0.6C433,331.8,433.3,331.2,433.9,330.8z"
			/>
		<path class="st1" d="M415.7,326.3c-1.4,2.8-4.2,9.4-0.6,12l0.4,0.3v1.4c-0.4-0.2-0.7-0.5-1.1-0.7c-5.4-4,0.7-14.3,1-14.8
			c0.1-0.1,0.2-0.2,0.3-0.2L415.7,326.3z"/>
		<path class="st1" d="M434.4,332.2c-0.2,0.3-4.1,7.9-10.6,9.4c-0.7,0.2-1.5,0.3-2.2,0.3c-2.1-0.1-4.2-0.7-6-1.9v-1.3
			c2.3,1.8,5.2,2.5,8,1.9c6-1.4,9.8-8.8,9.9-8.8c0.1-0.3,0.5-0.4,0.8-0.2C434.4,331.6,434.5,331.9,434.4,332.2
			C434.4,332.2,434.4,332.2,434.4,332.2z"/>
	</g>
</g>
<g id="freepik--Canvas--inject-20">
	<path class="st9" d="M430.4,384c-0.1-0.7-0.5-1.2-1.1-1.5l-39.5-22.8c-1.6-0.8-3.6-0.8-5.2,0l-59.8,34.5c-0.6,0.3-1,0.8-1.1,1.5
		v4.7c0.1,0.7,0.5,1.2,1.1,1.5l39.5,22.8c1.6,0.8,3.6,0.8,5.2,0l59.8-34.5c0.6-0.3,1-0.8,1.1-1.5V384z"/>
	<path class="st15" d="M366.9,420.6v4.7c-0.9,0-1.8-0.2-2.6-0.6l-39.5-22.8c-0.6-0.3-1-0.8-1.1-1.5v-4.7c0.1,0.7,0.5,1.2,1.1,1.5
		l39.5,22.8C365.1,420.4,366,420.6,366.9,420.6z"/>
	<path class="st16" d="M324.9,394.2l59.8-34.5c1.6-0.8,3.6-0.8,5.2,0l39.5,22.8c1.4,0.8,1.4,2.2,0,3L369.5,420
		c-1.6,0.8-3.6,0.8-5.2,0l-39.5-22.8C323.4,396.4,323.4,395,324.9,394.2z"/>
	<path class="st10" d="M389.8,359.7c-1.6-0.8-3.6-0.8-5.2,0l-59.8,34.5c-1.4,0.8-1.4,2.2,0,3l14.1,8.2l0,0c0,0,14.9,3.6,21.2-0.6
		s3.7-14.3,11.8-17s20.4,0.8,31.5-3.1s11.4-10.6,11.4-10.6l0,0L389.8,359.7z"/>
	<path class="st5" d="M389.8,359.7c-1.6-0.8-3.6-0.8-5.2,0l-59.8,34.5c-1.4,0.8-1.4,2.2,0,3l14.1,8.2l0,0c0,0,14.9,3.6,21.2-0.6
		s3.7-14.3,11.8-17s20.4,0.8,31.5-3.1s11.4-10.6,11.4-10.6l0,0L389.8,359.7z"/>
	<path class="st5" d="M323.8,395.7v4.7c0.1,0.7,0.5,1.2,1.1,1.5l14.1,8.2v-4.7l0,0l-14.1-8.2C324.3,396.9,323.8,396.4,323.8,395.7z"
		/>
	<path class="st6" d="M323.8,395.7v4.7c0.1,0.7,0.5,1.2,1.1,1.5l14.1,8.2v-4.7l0,0l-14.1-8.2C324.3,396.9,323.8,396.4,323.8,395.7z"
		/>
</g>
<g id="freepik--character-2--inject-20">
	<path class="st2" d="M328.5,318.5h-12.1c-6.7,0-12.9-17.6-12.9-24.3c0,0,0,0,0,0v-2.5c0-7.1,5.7-12.8,12.8-12.8l0,0
		c6.6,0,11.9,5.3,11.9,11.9l0,0L328.5,318.5z"/>
	<path class="st3" d="M293,355.2c-0.7-1.6,2.9-3,5.5-2.7c1.2,0.1,2.7,1.1,3.9,1.1c1.8,0.1,3.9-0.5,5.8-0.4c2.8,0.1,3.2,2.1,2.7,3.6
		s-4,2.9-4,2.9L300,358C296.6,357.6,294.1,356.8,293,355.2z"/>
	<path class="st2" d="M309,356c-0.9,0-0.4,3.3-1.4,4c-0.6,0.4-4.1-2.2-6.1-2.8s-6.6,0.2-8.4-2.1c0.2,0.6,0.6,1.2,1.2,1.6
		c2.4,1.9,4.9,3.5,7.6,4.9c2.8,1.3,9,3.6,9,3.6L309,356z"/>
	<path class="st5" d="M339.9,370.8c0.2,5.9-9.4,7-17.8,3c-6.4-3-9.2-5.2-15-9.5c-7.2-5.4-9.5-15.6-4.2-23.1l24.4-1.3
		c4.2,4.9,19.5,11.5,24.6,23.1C354.4,369.1,346,372.3,339.9,370.8L339.9,370.8z"/>
	<path class="st17" d="M339.9,370.8c0.2,5.9-9.4,7-17.8,3c-6.4-3-9.2-5.2-15-9.5c-7.2-5.4-9.3-13.5-4.2-23.1l24.4-1.3
		c4.2,4.9,19.5,11.5,24.6,23.1C354.4,369.1,345.9,372.3,339.9,370.8L339.9,370.8z"/>
	<path class="st18" d="M339.9,370.8c-0.6-5.5-4.8-8.2-8.5-10.9s-11.2-7.3-11.2-7.3c2.7,0.4,5.4-0.6,7.2-2.7
		c-0.2,1.5-1.1,2.9-2.4,3.7c0,0,10.5,6,13.6,11.1C339.9,366.5,340.3,368.7,339.9,370.8z"/>
	<path class="st19" d="M361.2,310.1c-2.3-3.4-3.5-2.4-4.4,0.6c-0.4,1.4-1.1,2.8-1.9,4c0-1-2.5,0.5-2.7,2.6c0,0.6-0.2,1.2-0.6,1.8
		c-2,2.6-7.8,6.9-11.9,10.1l-11-14.1c-3.8-4.8-5-6.7-9.3-7.1c1.3,0.6,2.5,1.5,3.4,2.6c1.7,2-0.5,11.6-0.5,11.6s13,13.2,14.3,14.5
		c0.2,0.2,0.4,0.4,0.6,0.5c1.4,1,3.3,1,4.6-0.1c3.8-3.1,9.7-9.6,12.7-13c2.1-2.4,3.1-3.3,4.5-4.6
		C361.8,316.7,362.7,312.2,361.2,310.1z"/>
	<path class="st5" d="M310.5,308.2L310.5,308.2c-5.7,0.4-6.1,3.2-7.6,6.2c-1,2.3-1.1,5-0.3,7.4l4,11.6c0,0-1.5,3.5-3.7,7.7
		c10,5.6,22.2,3.7,25.3-0.4c0.1-0.9-0.6-7.6-1.1-12.1c1.8-4.4,2.2-7.2,1.5-10.2c-1.4-5.4-6.8-10.7-9.1-10.5L310.5,308.2z"/>
	<path class="st6" d="M305.8,335.1c-0.4,0.7-0.8,1.7-1.3,2.7c-0.1,0.2-0.2,0.4-0.3,0.6l-0.4,0.7c-0.3,0.6-0.6,1.3-1,1.9
		c0.4,0.2,0.7,0.4,1.1,0.6c5.9,3,12.7,3.7,19.2,2c-3.4,0.4-6.8,0.3-10.1-0.4c-3.3-0.7-5.3-4-4.6-7.3c0,0,0-0.1,0-0.1
		c0-0.1,0.1-0.2,0.1-0.3c0.3-0.8,1.1-1.4,2-1.3c-1.3-0.9-2.2-2.2-2.5-3.7l-0.5-1.6c-1.2-3.7-1.3-7.6-0.2-11.3v-0.1l-4.2-2.4
		l-0.7,0.5l0,0c-0.2,0.8-0.4,1.5-0.4,2.3l0,0c0,0.2,0,0.4,0,0.6c0,0.1,0,0.2,0,0.3v0.5c0,0.1,0,0.3,0,0.4l0.1,0.4
		c0,0.2,0.1,0.3,0.1,0.5s0,0.2,0.1,0.3c0.1,0.3,0.2,0.6,0.2,0.8l4,11.6L305.8,335.1z"/>
	<path class="st19" d="M324.2,285.7c0.6,0.3,2.4,3.6,2.2,10.8c-0.1,6.1-2.1,7.5-3.1,8s-2.9,0.2-4.7-0.1v3.6c0,0,2.6,3,2.4,4.6
		s-3.7,2.1-6.1,0.4c-1.6-1.1-2.9-2.5-3.9-4.1v-8.8c-0.8,1-2.3,1.1-3.3,0.3c0,0,0,0,0,0c-2-1.4-2.1-4.7-0.9-5.9s3.8-0.8,4.2,0.9
		c0,0,3,0.5,7-2.1C322.3,290.5,323.6,288.3,324.2,285.7z"/>
	<path class="st2" d="M325.2,292.5l-1.7-0.8c0.2-0.5,0.7-0.7,1.2-0.5c0,0,0,0,0.1,0C325.2,291.4,325.4,292,325.2,292.5z"/>
	<path class="st2" d="M318.1,291.9l-1.6,1c-0.3-0.4-0.2-1,0.2-1.2c0,0,0,0,0.1,0C317.3,291.4,317.8,291.5,318.1,291.9z"/>
	<path class="st2" d="M310.9,293.7l0.1,3.7c1,0,1.8-0.8,1.8-1.7c0,0,0-0.1,0-0.1C312.7,294.5,311.9,293.7,310.9,293.7z"/>
	<path class="st2" d="M309.1,281.8l-1.6-3.4c-0.9,0.4-1.4,1.4-1,2.4c0,0,0,0.1,0,0.1C307,281.8,308.1,282.2,309.1,281.8z"/>
	<path class="st2" d="M308.2,281.6l-3.7-0.3c-0.1,1,0.6,1.9,1.6,2c0,0,0,0,0,0C307.2,283.3,308.1,282.6,308.2,281.6z"/>
	<path class="st2" d="M318.9,294.7c0.1,0.4-0.2,0.8-0.6,0.9c-0.4,0.1-0.8-0.2-0.9-0.6c0-0.1,0-0.1,0-0.2c0-0.4,0.3-0.8,0.7-0.8
		c0,0,0,0,0,0C318.5,293.9,318.9,294.3,318.9,294.7C318.9,294.7,318.9,294.7,318.9,294.7z"/>
	<path class="st20" d="M319.8,300.1l1.8,0.6c-0.1,0.5-0.6,0.8-1.1,0.6c0,0,0,0,0,0C319.9,301.1,319.7,300.6,319.8,300.1z"/>
	<path class="st2" d="M324.8,294.4c0,0.4-0.3,0.8-0.8,0.8s-0.8-0.3-0.8-0.8c0-0.4,0.3-0.7,0.7-0.8
		C324.4,293.6,324.8,294,324.8,294.4z"/>
	<polygon class="st20" points="321.1,294 321.2,298.5 323.6,297.8 	"/>
	<path class="st20" d="M318.5,304.3c-2-0.3-6-1.4-6.6-3c0.3,0.8,0.7,1.5,1.4,2c1.2,1,5.2,2.2,5.2,2.2V304.3z"/>
	<path class="st19" d="M315.7,355.4c3.4-2.3,2.5-3.5-0.5-4.5c-1.3-0.4-2.5-1-3.6-1.7c0.7,0,1.3,0,2-0.2c0.7-0.1,1.2-0.8,1.1-1.5
		c-0.1-0.3-0.8-0.1-2-0.4c-1.5-0.4-2.3-1-4-1c-0.6,0-1.3-0.2-1.8-0.6c-2.5-2.1-6.6-8.3-9.7-12.5c3-3.4,9.7-13.6,9.7-13.6
		c2.4-3.1,2.7-7.4,0.8-10.9c-2.9,0.3-5.7,3.2-9.2,8.6c-7.9,12.2-11,14.7-8.8,17.9c2.8,4,8.5,10,11.7,13.4c1.6,1.6,3.2,3,5,4.3
		C311,356.6,313.6,356.8,315.7,355.4z"/>
	<path class="st3" d="M357.6,307.2v10.1c0,0.2-0.2,0.4-0.4,0.5c-0.6,0.3-1.3,0.3-1.9,0c-0.2-0.1-0.4-0.3-0.4-0.5v-10.1H357.6z"/>
	<polygon class="st4" points="354.9,309.8 357.6,311.3 357.6,307.2 354.9,307.2 	"/>
	<path class="st4" d="M353.6,299.1v2l-1.8-1v4.2c0.1,1.4,0.8,2.7,2,3.4l3.1,1.8c0.4,0.3,0.9,0.3,1.3,0.2c0,0,1.6-0.9,1.9-1.1
		c0.4-0.3,0.6-0.8,0.5-1.2v-4.2L353.6,299.1z"/>
	<path class="st3" d="M356.9,309.6l-3.1-1.8c-1.2-0.8-1.9-2-2-3.4v-4.2l7.1,4.1v4.2C358.9,309.7,358,310.2,356.9,309.6z"/>
	<polygon class="st9" points="358.9,304.3 351.8,300.2 351.8,294 358.9,298.1 	"/>
	<polygon class="st1" points="358.9,304.3 358.9,298.1 360.7,297.1 360.7,303.2 	"/>
	<polygon class="st5" points="358.9,306.1 351.8,302 351.8,302.8 358.9,307 	"/>
	<polygon class="st5" points="358.9,306.1 360.7,305.1 360.7,306 358.9,307 	"/>
	<polygon class="st6" points="358.9,306.1 360.7,305.1 360.7,306 358.9,307 	"/>
	<path class="st5" d="M360.7,299c0,0-0.6,1.5-1.8,1.5v-2.4l1.8-1V299z"/>
	<path class="st6" d="M360.7,299c0,0-0.6,1.5-1.8,1.5v-2.4l1.8-1V299z"/>
	<path class="st5" d="M358.9,300.5c-0.8,0.3-1.7,0.2-2.4-0.3c-0.8-0.6-1.1-2.8-2.8-2.9c-0.8,0.1-1.5,0.5-1.9,1.2V294l7.1,4.1
		L358.9,300.5z"/>
	<polygon class="st5" points="351.8,294 353.6,293 360.7,297.1 358.9,298.1 	"/>
	<polygon class="st8" points="351.8,294 353.6,293 360.7,297.1 358.9,298.1 	"/>
	<path class="st19" d="M352.2,317.7c-0.1-1.4-0.1-2.8,0.2-4.1c0.5-1.2,2.6-2.8,3.3-3.3s1.5,0,1.1,1.4s-1,1.8-1.5,2.7
		c-0.2,0.5-0.4,1-0.4,1.5L352.2,317.7z"/>
</g>
<g id="freepik--character-1--inject-20">
	<path class="st6" d="M198.1,206.4c-0.9-0.7-2.1-0.8-3.1-0.3l-21.6,12.5c-0.9,0.6-1.4,1.7-1.3,2.8c0.2,3.1,1.8,5.8,4.3,7.5
		c0.9,0.7,2.1,0.8,3.1,0.3l21.6-12.5c0.9-0.6,1.4-1.7,1.3-2.8C202.2,210.9,200.6,208.1,198.1,206.4z"/>
	<path class="st19" d="M228.4,294.4c0,0-6.9,0.3-8.9,0.3c-5-5.2-12.3-12.6-13.9-14.7c-2.1-3.9-3.9-7.6-5.8-7.9s-5.8,0.7-6.7,2.4
		c-0.7,1.2,0.8,4.6,2.1,3.8c0.6,1.1,1.3,4,4.6,5.1c5.1,6.2,11,14.1,14.2,17.9c1.7,1.6,4.3,1.8,6.2,0.3L228.4,294.4z"/>
	<path class="st2" d="M249.1,407.9c0.4,0.2,0.5,1,0.5,2.6c0,1.2,0.2,3.4-1.2,3.8s-3.6,0.1-4.5-1c-1.1-1.5-1.9-2.8-3.5-4.6
		c-1.4-1.6-2.9-3-3.4-5.2c-0.5-2,0-2.8,1.3-3.3c1.8-0.7,4.6,1.9,6.1,2.3C245.6,402.8,248.6,407.7,249.1,407.9z"/>
	<path class="st19" d="M249.1,406.4l-0.1,2c-1.6,0.9-3.5,0.9-5.1,0c-0.1-0.2-0.5-2.9-0.5-2.9L249.1,406.4z"/>
	<path class="st2" d="M232.6,419.1c0,0,0.5,1.8,0.8,3.3c0.2,1.2,0.5,3.2,0.1,4.1s-2.1,1.5-4.7,1.4c-1.7,0-4.3,1-6.1,2
		s-5.7,1.3-7.6,1c-2.3-0.3-4.6-1.7-4.9-2.6s0.2-1.9,5.6-4.1c0,0,7.5-2.3,10.2-5.1H232.6z"/>
	<path class="st19" d="M232.7,416.9c0,0,0,1.5,0,2.3s-1.1,2.1-3.6,1.9c-1.8-0.1-3.1-0.6-3-2.1l0.1-2.2L232.7,416.9z"/>
	<path class="st4" d="M251,379.9c-0.4-3.6-1.1-7.1-2.1-10.5c0,0,0.9-9,1.4-17.5c0.6-9.2,0.4-20.8,0.7-23.1c0,0-29.6-6.7-30.3,4
		s0.3,37.8,0.6,42.4s1,8.8,1.8,16.4s3.1,25.2,3.1,25.2c2.1,1.1,4.5,1.1,6.6,0c0,0,2.6-21.2,2.5-26.6c-0.1-4-0.7-8-1.8-11.8
		c0,0,0.8-8.8,1.4-16.4s1.3-11.3,1.5-14.6l0.6-0.3c0,0,0.4,13.2,0.6,17.9s0.9,9.2,2.1,17.9c1,7.5,4.1,23.6,4.1,23.6
		c3.4,1.9,5.4-0.1,5.4-0.1S251.8,386.4,251,379.9z"/>
	<path class="st2" d="M236.3,347.5c0,0,7.3-3.4,11-6.5c0,0-3.4,4.6-7.9,6.6c0,0-1.9,16.3-1.9,16l-0.5-16.1L236.3,347.5z"/>
	<polygon class="st19" points="231.1,286.5 232.8,296.2 241.9,295.4 240,284.8 	"/>
	<path class="st5" d="M250.7,295.6c-0.8-2.6-4.1-5.6-7.4-5l-2.2,0.4c0,1.7-4.7,2.9-9,1.9c-1.3,0.3-2.5,0.7-3.6,1
		c-3.1,1-5.9,3.6-6.4,13.6c0,0-1.6,23.4-1.7,28c6.3,2.6,13.2,3.5,20,2.4c9.2-1.8,10.4-5.6,10.4-5.6s0.5-16.9,0.4-24.1
		C251.3,302,251.3,297.4,250.7,295.6z"/>
	<path class="st20" d="M225,273.8c0,0-2.7,3.2-2.5,3.5s1.9,0.9,1.9,0.9L225,273.8z"/>
	<path class="st19" d="M232.4,265c-4.7,0.4-7,2.1-7.9,9.6c-0.9,7.7-0.2,10.4,0.7,11.5c0.6,0.8,3.9,1,5.9,0.8c2.5-0.4,8.1-1.6,11-5.2
		c3.5-4.2,5-10.2,2.2-13.1C240.3,264.5,234.4,264.9,232.4,265z"/>
	<path class="st2" d="M224.2,267.7l0.1,0.1c0.9,0.9,2,1.4,3,2.2c1,0.9,1.7,2.1,2.1,3.4c0.3,1.1,0.4,2.3,1.6,2.8c0,0,0.7-2.8,3.1-2.5
		s2.7,3.5,1.2,5.3s-3,1.1-3,1.1s0.1,4.1,1.9,6.4c1.9,0.4,3.9,0.4,5.8-0.1c2.3-0.5,5.6-3.4,7-6.5c2.9-6.5,3.1-12.4-1-14.1
		c-0.4-3-2.8-4.3-5.5-5c-4-0.9-7.8,1.5-11.8,0.6c-0.8-0.2-1.6-0.5-2.5-0.6c-0.1,0-0.2,0-0.3,0c-0.2,0.1-0.2,0.4-0.1,0.6
		c0.2,0.8,0.6,1.5,1.2,2.1c-1.5,0.1-3.1-0.1-4.5-0.6C222.4,264.7,223,266.5,224.2,267.7z"/>
	<path class="st2" d="M246.1,266.9l2.8-1.6c-0.5-0.8-1.4-1-2.2-0.6C245.9,265.1,245.7,266.1,246.1,266.9z"/>
	<path class="st2" d="M230.9,277.8l0.1-3.2c-0.9,0-1.6,0.7-1.7,1.6S230,277.8,230.9,277.8z"/>
	<path class="st4" d="M205.5,305L205.5,305l-3.3-21.2l-4.4,0.7l3.3,21.2l0,0c0,0.2,0.2,0.4,0.4,0.5c1,0.5,2.1,0.5,3.1,0
		C205.2,305.9,205.5,305.5,205.5,305z"/>
	<path class="st3" d="M198.1,285.1c1,0.5,2.1,0.5,3.1,0c1-0.5,1.3-1.3,0.6-1.8c-1-0.5-2.1-0.5-3.1,0
		C197.7,283.8,197.4,284.6,198.1,285.1z"/>
	<path class="st4" d="M201.7,214c-0.2,0-0.5-0.2-0.5-0.4l-1.3-8.5l-0.8,0.4c-0.2,0.2-0.5,0.1-0.7-0.1s-0.1-0.5,0.1-0.7
		c0,0,0.1,0,0.1-0.1l1.4-0.8c0.1-0.1,0.3-0.1,0.5,0c0.1,0.1,0.2,0.2,0.3,0.4l1.4,9.2C202.2,213.7,202.1,214,201.7,214
		C201.8,214,201.8,214,201.7,214L201.7,214z"/>
	<path class="st10" d="M203.2,207.6c-0.2-3.1-1.8-5.8-4.3-7.5c-0.9-0.7-2.1-0.8-3.1-0.3l-21.7,12.5l6.1,10.6l21.7-12.5
		C202.8,209.9,203.4,208.8,203.2,207.6z"/>
	<path class="st5" d="M203.2,207.6c-0.2-3.1-1.8-5.8-4.3-7.5c-0.9-0.7-2.1-0.8-3.1-0.3l-21.7,12.5l6.1,10.6l21.7-12.5
		C202.8,209.9,203.4,208.8,203.2,207.6z"/>
	<path class="st21" d="M203.3,207.6c-0.2-3.1-1.8-5.8-4.3-7.5c-0.9-0.7-2.1-0.8-3.1-0.3l-21.7,12.5l6.1,10.6l21.7-12.5
		C202.9,209.9,203.4,208.8,203.3,207.6z"/>
	<path class="st22" d="M200.7,201.6L179,214.1c-0.5-0.6-1.1-1.1-1.8-1.5c-0.8-0.6-1.9-0.7-2.9-0.4l21.5-12.4c1-0.5,2.2-0.4,3.1,0.3
		C199.6,200.5,200.1,201,200.7,201.6z"/>
	<path class="st5" d="M177.2,212.7c2.6,1.7,4.2,4.5,4.3,7.5c0,2.8-1.9,3.9-4.3,2.5c-2.6-1.7-4.2-4.5-4.3-7.5
		C172.8,212.4,174.8,211.3,177.2,212.7z"/>
	<path class="st22" d="M177.2,212.7c2.6,1.7,4.2,4.5,4.3,7.5c0,2.8-1.9,3.9-4.3,2.5c-2.6-1.7-4.2-4.5-4.3-7.5
		C172.8,212.4,174.8,211.3,177.2,212.7z"/>
	<path class="st23" d="M174.3,212.2c-0.1,0-0.1,0.1-0.2,0.1l0,0L174.3,212.2z"/>
	<path class="st4" d="M177.2,228.2c-0.1,0-0.1,0-0.2-0.1c-0.2-0.1-0.3-0.2-0.3-0.4l-1.4-9.2c0-0.2,0.1-0.4,0.2-0.5l1.4-0.8
		c0.2-0.2,0.5-0.1,0.7,0.1s0.1,0.5-0.1,0.7c0,0-0.1,0-0.1,0.1l-1.1,0.6l1.2,8.1l23.9-13.8c0.3-0.1,0.5,0,0.7,0.2
		c0.1,0.2,0,0.5-0.2,0.6l-24.5,14.2C177.4,228.2,177.3,228.2,177.2,228.2z"/>
	<path class="st4" d="M199.9,284.3c-0.2,0-0.5-0.2-0.5-0.4l-9.7-63.7c0-0.3,0.1-0.5,0.4-0.6s0.5,0.1,0.6,0.4l9.7,63.7
		c0,0.3-0.1,0.5-0.4,0.6c0,0,0,0,0,0L199.9,284.3z"/>
	<path class="st19" d="M227.4,294.4c-3.7,0.5-6.2,3.4-10.4,8.5c-3.7,4.5-7.1,9.7-7.1,9.7s-6.3-11.2-6.9-13.6s0.5-3.1,1.1-6.5
		s-1.5-4.8-1.5-4.8l0.2,1.5c-0.3,1.2-1.2,2.2-2.4,2.6c0,0-1.7,0-2.1-2.5l-0.6-3.6c0,0-2.4,0.2-2.6,5.8c-0.1,4.3,0.9,6.4,1.6,9.3
		c0.6,2.5,3.8,14.5,7.4,20.4c1.4,2.3,3.2,4.9,7.7,1.2s14-14,14-14S230.9,303.7,227.4,294.4z"/>
	<path class="st4" d="M228.6,293.9c-3.1,0.4-6,1.9-8.1,4.3c-2.8,3-8.5,10.6-8.5,10.6s0.2,5.4,6.3,8.3l9-8.9c1.9-2.1,3-4.7,3.3-7.5
		C231,294.9,228.6,293.9,228.6,293.9z"/>
	<path class="st20" d="M196.5,273.8c0.6,0.8,1,1.7,1.3,2.7c0.2,0.8,0.3,3.2,3.2,3.5c0,0-0.2-3.8-1.5-5
		C198.7,274.2,197.6,273.8,196.5,273.8z"/>
	<path class="st19" d="M201.3,280.2c-3-1.5-2.2-3.1-3.8-4.9c-1.4-1.7-1.6-2.2-1.4-2.8c0.1-0.4,0.5-0.5,1.2-0.3
		c1.9,0.4,3.2,2.4,4.1,4L201.3,280.2z"/>
	<path class="st20" d="M195.3,278.3c0.1-0.1,0.2-0.3,0.2-0.5c0.2,0.2,0.6,0.3,0.9,0.2c0.4-0.1,0.7-0.5,0.7-0.9c0,0.5-0.2,1-0.7,1.1
		c-0.8,0.2-0.8-0.1-0.8-0.1c0,0.1-0.1,0.3-0.2,0.4"/>
</g>
<path class="st24" d="M318.8,162.4c-0.6,12.2-4,23.8-9.8,33.6c-0.2,0.3-0.4,0.7-0.6,1c-3.8,6.2-8.7,11.7-14.2,16
	c-3.5,2.6-7.6,4.1-11.8,4.2c-2.6,0-5.2-0.8-7.4-2.3c-5.3-3.6-8.2-10.9-8.2-20.6c0.9-20.4,10-39.1,24.4-50.4c0.1-0.1,0.2-0.2,0.3-0.2
	c0.2-0.1,0.3-0.2,0.5-0.3c7-4.5,13.5-5.1,18.7-1.6C315.9,145.3,318.8,152.7,318.8,162.4z"/>
<path class="st16" d="M302.3,184.1L309,196c-0.2,0.3-0.4,0.7-0.6,1l-7.3-13l11.4-13.3l-7.7-9.7c-4.4-5.5-9.1-11.5-13.5-17
	c0.1-0.1,0.2-0.2,0.3-0.2c0.2-0.1,0.3-0.2,0.5-0.3c4.4,5.6,9,11.4,13.5,17l8.2,10.4L302.3,184.1z"/>
</svg>
