<?xml version="1.0" encoding="utf-8"?>
<!-- Generator: Adobe Illustrator 26.0.2, SVG Export Plug-In . SVG Version: 6.00 Build 0)  -->
<svg version="1.1" id="Design_1_" xmlns="http://www.w3.org/2000/svg" xmlns:xlink="http://www.w3.org/1999/xlink" x="0px" y="0px"
	 viewBox="0 0 400 400" style="enable-background:new 0 0 400 400;" xml:space="preserve">
<style type="text/css">
	.st0{fill:#F5C12E;}
	.st1{fill:#F9D67A;}
	.st2{fill:#F0AB00;}
	.st3{fill:#B58100;}
</style>
<g>
	<g>
		<g>
			<path class="st0" d="M306.96,307.28H93.01c0-51.7,30.19-48.8,30.19-77.78c0-9.35,0-50.53,0-50.53c0-41.14,20.31-68.26,53.2-76.77
				c1.2-11.96,11.31-21.32,23.6-21.32c12.26,0,22.36,9.36,23.57,21.32c32.89,8.48,53.2,35.63,53.2,76.77c0,0,0,41.17,0,50.53
				C276.77,258.48,306.96,255.58,306.96,307.28z"/>
		</g>
		<g>
			<path class="st1" d="M306.97,307.28H93c0-3.19,0.12-6.18,0.33-8.98h186.82c0-52.11-30.19-49.2-30.19-78.41
				c0-9.43,0-50.92,0-50.92c0-41.47-33.93-71.7-66.83-80.24c-0.36-3.55,12.13-4.05,10.39-6.97c2.06-0.58,4.22-0.89,6.47-0.89
				c12.26,0,22.36,9.36,23.57,21.32c32.9,8.48,53.2,35.64,53.2,76.77c0,0,0,41.18,0,50.53
				C276.77,258.47,306.97,255.57,306.97,307.28z"/>
		</g>
		<path class="st0" d="M244.25,307.73c0,0-4.29,42.17-46.29,42.17c-11.01,0-19.19-2.9-25.25-7.2
			c-17.05-12.03-17.43-34.97-17.43-34.97H244.25z"/>
		<path class="st2" d="M244.25,307.73c0,0-4.29,42.17-46.29,42.17c-11.01,0-19.19-2.9-25.25-7.2c1.21-0.38,2.74-0.63,4.6-0.73
			c0.27-0.01,0.53-0.03,0.79-0.05c17.78-1.17,18.88-26.98,1.29-29.82c-11.75-1.9-21-3.4-21.18-3.52l-0.57-0.86H244.25z"/>
		<path class="st3" d="M280.55,229.49v-50.53c0-40.98-19.5-69.9-53.61-79.77c-2.52-12.77-13.67-22.1-26.94-22.1
			c-13.29,0-24.45,9.33-26.97,22.11c-34.11,9.9-53.61,38.82-53.61,79.77v50.53c0,11.03-4.84,16.77-10.97,24.04
			c-8.56,10.15-19.21,22.79-19.21,53.74c0,2.09,1.69,3.78,3.78,3.78h59.43c1.94,24.54,22.52,43.91,47.56,43.91
			c25.02,0,45.59-19.38,47.53-43.91h59.43c2.09,0,3.78-1.69,3.78-3.78c0-30.95-10.65-43.59-19.21-53.74
			C285.4,246.27,280.55,240.52,280.55,229.49z M200,347.41c-20.87,0-38.07-15.99-39.99-36.35h79.94
			C238.05,331.42,220.85,347.41,200,347.41z M243.91,303.5h-87.86H96.85c0.79-25.42,9.58-35.84,17.38-45.09
			c6.56-7.78,12.75-15.13,12.75-28.92v-50.53c0-38.18,18.36-64.83,50.37-73.11c1.53-0.4,2.66-1.71,2.81-3.28
			c1.03-10.22,9.56-17.92,19.84-17.92c10.26,0,18.78,7.7,19.81,17.92c0.16,1.58,1.28,2.89,2.82,3.28
			c32.01,8.25,50.37,34.9,50.37,73.11v50.53c0,13.79,6.19,21.14,12.75,28.92c7.8,9.25,16.59,19.67,17.38,45.09H243.91z"/>
		<path class="st3" d="M264.51,74.81c-1.71-1.2-4.07-0.79-5.27,0.91c-1.2,1.71-0.79,4.06,0.91,5.27
			c26.94,18.97,43.02,49.93,43.02,82.83c0,9.27-1.25,18.46-3.73,27.3c-0.56,2.01,0.61,4.1,2.62,4.66c0.34,0.1,0.68,0.14,1.02,0.14
			c1.65,0,3.17-1.09,3.64-2.76c2.66-9.51,4-19.38,4-29.34C310.74,128.47,293.46,95.19,264.51,74.81z"/>
		<path class="st3" d="M289.25,45.77c-1.68-1.24-4.05-0.89-5.29,0.79c-1.24,1.68-0.89,4.04,0.79,5.29
			c35.35,26.18,56.46,68.04,56.46,111.97c0,11.11-1.31,22.16-3.9,32.85c-0.49,2.03,0.76,4.07,2.78,4.56c0.3,0.07,0.6,0.11,0.89,0.11
			c1.71,0,3.25-1.16,3.67-2.89c2.73-11.27,4.11-22.92,4.11-34.63C348.76,117.51,326.51,73.38,289.25,45.77z"/>
		<path class="st3" d="M139.84,80.99c1.71-1.2,2.12-3.56,0.91-5.27c-1.2-1.71-3.56-2.12-5.27-0.91
			c-28.95,20.38-46.23,53.66-46.23,89.01c0,9.96,1.35,19.83,4,29.34c0.47,1.67,1.99,2.76,3.64,2.76c0.34,0,0.68-0.04,1.02-0.14
			c2.01-0.56,3.18-2.65,2.62-4.66c-2.47-8.84-3.72-18.03-3.72-27.3C96.82,130.92,112.9,99.96,139.84,80.99z"/>
		<path class="st3" d="M58.8,163.82c0-43.93,21.11-85.79,56.46-111.97c1.68-1.24,2.03-3.61,0.79-5.29
			c-1.24-1.68-3.61-2.03-5.29-0.79c-37.27,27.6-59.52,71.73-59.52,118.05c0,11.7,1.38,23.35,4.11,34.63
			c0.42,1.73,1.97,2.89,3.67,2.89c0.29,0,0.59-0.03,0.89-0.11c2.03-0.49,3.28-2.53,2.79-4.56C60.11,185.98,58.8,174.93,58.8,163.82z
			"/>
	</g>
</g>
</svg>
