<?xml version="1.0" encoding="utf-8"?>
<!-- Generator: Adobe Illustrator 24.0.1, SVG Export Plug-In . SVG Version: 6.00 Build 0)  -->
<svg version="1.1" id="Layer_1" xmlns="http://www.w3.org/2000/svg" xmlns:xlink="http://www.w3.org/1999/xlink" x="0px" y="0px"
	 viewBox="0 0 500 500" style="enable-background:new 0 0 500 500;" xml:space="preserve">
<style type="text/css">
	.st0{fill:#FAFAFA;}
	.st1{display:none;}
	.st2{display:inline;fill:#E6E6E6;}
	.st3{fill:#37474F;}
	.st4{fill:#455A64;}
	.st5{fill:#9A4A4D;}
	.st6{opacity:0.4;fill:#FFFFFF;enable-background:new    ;}
	.st7{opacity:0.6;fill:#FFFFFF;enable-background:new    ;}
	.st8{opacity:0.8;fill:#FFFFFF;enable-background:new    ;}
	.st9{fill:#FFFFFF;}
	.st10{opacity:0.2;fill:#FFFFFF;enable-background:new    ;}
	.st11{fill:#263238;}
	.st12{fill:#BDD5AE;}
	.st13{opacity:0.6;enable-background:new    ;}
	.st14{opacity:0.4;}
	.st15{opacity:0.3;}
	.st16{fill:#FFA8A7;}
	.st17{opacity:0.2;enable-background:new    ;}
	.st18{opacity:0.1;enable-background:new    ;}
	.st19{opacity:0.5;}
	.st20{fill:#E0E0E0;}
	.st21{fill:#F28F8F;}
	.st22{fill:#B16668;}
	.st23{opacity:0.3;enable-background:new    ;}
	.st24{opacity:0.1;fill:#FFFFFF;enable-background:new    ;}
	.st25{opacity:0.4;enable-background:new    ;}
	.st26{fill:#F5F5F5;}
	.st27{fill:#F0F0F0;}
	.st28{display:inline;}
	.st29{fill:#BA68C8;}
</style>
<g id="freepik--Floor--inject-34">
	<ellipse id="freepik--floor--inject-34" class="st0" cx="252.2" cy="342.8" rx="223.2" ry="126.8"/>
</g>
<g id="freepik--Shadow--inject-34" class="st1">
	<ellipse id="freepik--shadow--inject-34" class="st2" cx="397.5" cy="321.2" rx="43.1" ry="24.9"/>
</g>
<g id="freepik--color-palette--inject-34">
	<g id="freepik--Palette--inject-34">
		<path class="st3" d="M340.1,373.8L340.1,373.8c0-0.1,0-0.2-0.1-0.3l-12.4-26.8c-0.5-0.7-1.4-1-2.2-0.8l-224,34.7
			c-0.8,0.1-1.4,0.6-1.4,1l0,0v4.7l0,0c0,0.1,0,0.2,0.1,0.3l12.4,26.8c0.5,0.7,1.4,1,2.2,0.8l224-34.6c0.8-0.1,1.4-0.6,1.4-1l0,0
			L340.1,373.8z"/>
		<path class="st4" d="M101.4,380.7l224-34.6c0.8-0.2,1.7,0.1,2.2,0.8l12.4,26.8c0.3,0.6-0.3,1.1-1.3,1.3l-224,34.6
			c-0.8,0.2-1.7-0.1-2.2-0.8L100.1,382C99.8,381.4,100.4,380.8,101.4,380.7z"/>
		<polygon class="st5" points="113.7,385.6 121.1,401.7 148.8,397.4 141.4,381.4 		"/>
		<polygon class="st5" points="184.7,374.7 192.1,390.7 219.9,386.4 212.4,370.4 		"/>
		<polygon class="st6" points="184.7,374.7 192.1,390.7 219.9,386.4 212.4,370.4 		"/>
		<polygon class="st5" points="220.2,369.2 227.6,385.2 255.4,380.9 247.9,364.9 		"/>
		<polygon class="st7" points="220.2,369.2 227.6,385.2 255.4,380.9 247.9,364.9 		"/>
		<polygon class="st5" points="255.7,363.7 263.1,379.7 290.9,375.4 283.5,359.4 		"/>
		<polygon class="st8" points="255.7,363.7 263.1,379.7 290.9,375.4 283.5,359.4 		"/>
		<polygon class="st5" points="291.2,358.2 298.7,374.2 326.4,369.9 319,353.9 		"/>
		<polygon class="st9" points="291.2,358.2 298.7,374.2 326.4,369.9 319,353.9 		"/>
		<polygon class="st5" points="149.2,380.1 156.6,396.2 184.4,391.9 176.9,375.9 		"/>
		<polygon class="st10" points="149.2,380.1 156.6,396.2 184.4,391.9 176.9,375.9 		"/>
		<path class="st11" d="M113.1,409.3v4.7c-0.2-0.1-0.4-0.3-0.6-0.5l-12.4-26.8c0-0.1-0.1-0.2-0.1-0.2v-4.7c0,0.1,0,0.2,0.1,0.3
			l12.4,26.8C112.6,409,112.8,409.2,113.1,409.3z"/>
		<path class="st3" d="M327.9,330.8L327.9,330.8c0-0.2-0.1-0.4-0.2-0.5l-24-24c-0.7-0.5-1.7-0.7-2.5-0.4l-200.8,66.9
			c-0.6,0.2-0.9,0.5-0.9,0.9l0,0v4.7l0,0c0,0.2,0.1,0.4,0.2,0.5l24,24c0.7,0.5,1.7,0.7,2.5,0.4L327,336.4c0.6-0.2,0.9-0.5,0.9-0.9
			l0,0L327.9,330.8z"/>
		<path class="st4" d="M100.4,372.8l200.8-66.9c0.8-0.3,1.8-0.2,2.5,0.4l24,24c0.5,0.5,0.2,1.2-0.7,1.5l-200.8,66.9
			c-0.8,0.3-1.8,0.2-2.5-0.4l-24-24C99.2,373.7,99.5,373.1,100.4,372.8z"/>
		<polygon class="st12" points="114.5,375.7 128.8,390.1 153.7,381.8 139.4,367.5 		"/>
		<polygon class="st13" points="114.5,375.7 128.8,390.1 153.7,381.8 139.4,367.5 		"/>
		<polygon class="st12" points="178.1,354.5 192.5,368.9 217.4,360.6 203,346.2 		"/>
		<g class="st14">
			<polygon points="178.1,354.5 192.5,368.9 217.4,360.6 203,346.2 			"/>
		</g>
		<polygon class="st12" points="210,343.9 224.4,358.3 249.2,350 234.9,335.6 		"/>
		<g class="st15">
			<polygon points="210,343.9 224.4,358.3 249.2,350 234.9,335.6 			"/>
		</g>
		<polygon class="st16" points="241.8,333.3 256.2,347.6 281.1,339.4 266.7,325 		"/>
		<polygon class="st12" points="241.8,333.3 256.2,347.6 281.1,339.4 266.7,325 		"/>
		<polygon class="st17" points="241.8,333.3 256.2,347.6 281.1,339.4 266.7,325 		"/>
		<polygon class="st16" points="273.7,322.7 288,337 312.9,328.7 298.5,314.4 		"/>
		<polygon class="st12" points="273.7,322.7 288,337 312.9,328.7 298.5,314.4 		"/>
		<polygon class="st18" points="273.7,322.7 288,337 312.9,328.7 298.5,314.4 		"/>
		<polygon class="st12" points="146.3,365.1 160.7,379.5 185.6,371.2 171.2,356.8 		"/>
		<g class="st19">
			<polygon points="146.3,365.1 160.7,379.5 185.6,371.2 171.2,356.8 			"/>
		</g>
		<path class="st11" d="M124.8,398.7v4.7c-0.4-0.1-0.7-0.2-1-0.5l-24-24c-0.1-0.1-0.2-0.3-0.2-0.5v-4.6c0,0.2,0.1,0.3,0.2,0.5l24,24
			C124,398.5,124.4,398.7,124.8,398.7z"/>
		<path class="st3" d="M98.5,368.5v1.7c0.1,0.9,0.5,1.7,1.3,2.2l34,19.6c0.8,0.4,1.8,0.4,2.6,0l163.9-94.7c0.8-0.5,1.3-1.3,1.3-2.2
			v-1.7c0-0.9-0.5-1.8-1.3-2.2l-33.9-19.6c-0.8-0.4-1.8-0.4-2.6,0L99.8,366.3C99,366.8,98.6,367.6,98.5,368.5z"/>
		<path class="st4" d="M99.8,366.3l164-94.7c0.8-0.4,1.8-0.4,2.6,0l34,19.6c0.7,0.4,0.7,1.1,0,1.5l-164,94.6c-0.8,0.4-1.8,0.4-2.6,0
			l-34-19.6c-0.4-0.1-0.6-0.6-0.5-1C99.4,366.5,99.6,366.3,99.8,366.3z"/>
		<path class="st11" d="M135.1,387.7v4.7c-0.5,0-0.9-0.1-1.3-0.3l-33.9-19.6c-0.8-0.5-1.2-1.3-1.3-2.2v-1.7c0-0.8,0.4-1.5,1-2.1
			c-0.4,0.4-0.4,1,0.3,1.3l34,19.6C134.1,387.6,134.6,387.7,135.1,387.7z"/>
		<path class="st4" d="M99.8,366.3l164-94.7c0.8-0.4,1.8-0.4,2.6,0l34,19.6c0.7,0.4,0.7,1.1,0,1.5l-164,94.6c-0.8,0.4-1.8,0.4-2.6,0
			l-34-19.6c-0.4-0.1-0.6-0.6-0.5-1C99.4,366.5,99.6,366.3,99.8,366.3z"/>
		<polygon class="st12" points="114.8,367 135.1,378.7 155.4,367 135.1,355.3 		"/>
		<polygon class="st12" points="166.8,337 187.1,348.7 207.4,337 187.1,325.3 		"/>
		<polygon class="st6" points="166.8,337 187.1,348.7 207.4,337 187.1,325.3 		"/>
		<polygon class="st12" points="192.7,322 213.1,333.7 233.4,322 213.1,310.2 		"/>
		<polygon class="st7" points="192.7,322 213.1,333.7 233.4,322 213.1,310.2 		"/>
		<polygon class="st12" points="218.7,307 239.1,318.7 259.4,307 239.1,295.2 		"/>
		<polygon class="st8" points="218.7,307 239.1,318.7 259.4,307 239.1,295.2 		"/>
		<polygon class="st12" points="244.7,292 265,303.7 285.4,292 265,280.2 		"/>
		<polygon class="st9" points="244.7,292 265,303.7 285.4,292 265,280.2 		"/>
		<polygon class="st12" points="140.8,352 161.1,363.7 181.4,352 161.1,340.3 		"/>
		<polygon class="st10" points="140.8,352 161.1,363.7 181.4,352 161.1,340.3 		"/>
		<path class="st11" d="M110,365.8c0.7,0.2,1,0.9,0.8,1.6c-0.1,0.4-0.4,0.6-0.8,0.8c-1.3,0.6-2.8,0.6-4.1,0c-0.7-0.2-1-0.9-0.8-1.6
			c0.1-0.4,0.4-0.6,0.8-0.8C107.2,365.2,108.7,365.2,110,365.8z"/>
		<path class="st20" d="M108.4,365.4c-4.2-9.7-15.4-14.1-25.1-10s-14.1,15.4-10,25.1c3,7,9.9,11.5,17.5,11.5c3.6,0,7.2-1,10.2-3
			l-1.1-2.3c0-0.1-0.1-0.2-0.1-0.2v-0.3c-2.7,1.9-5.9,2.9-9.1,2.9c-8.9,0-16.1-7.2-16.1-16.1s7.2-16.1,16.1-16.1
			c6.3,0,12,3.6,14.6,9.3c0.4,0.8,0.6,1.5,0.9,2.3c1,0.3,2.1,0.3,3.1,0C109.2,367.4,108.9,366.4,108.4,365.4z"/>
	</g>
</g>
<g id="freepik--Colors--inject-34">
	<path class="st12" d="M77.2,178.6c-0.1-1.9-1.1-3.6-2.7-4.7l-2.2-1.3c-1.7-0.9-3.7-0.9-5.4,0l-17.3,10c-1.6,1-2.6,2.8-2.7,4.7v20
		c0.1,1.9,1.1,3.6,2.7,4.7l2.2,1.3c0.2,0.1,0.4,0.2,0.6,0.3l0.2,0.1c0.1,0.1,0.3,0.1,0.4,0.1l0.3,0.1l0.3,0.1h0.4H55
		c0.2,0,0.3,0,0.5-0.1h0.1l0.5-0.1h0.1c0.3-0.1,0.7-0.2,1-0.4l17.3-10c1.6-1,2.6-2.8,2.7-4.7L77.2,178.6z"/>
	<path class="st6" d="M77.2,178.1c-0.2-1.4-1.3-1.9-2.7-1.1l-17.3,10c-0.8,0.5-1.4,1.2-1.9,2l-7.6-4.4c0.5-0.8,1.1-1.5,1.9-2
		l17.3-10c1.7-0.9,3.7-0.9,5.4,0l2.2,1.3C76,174.9,77,176.4,77.2,178.1z"/>
	<path class="st18" d="M56.7,213.5c-0.1,0-0.1,0.1-0.2,0.1l-0.4,0.1c-0.3,0.1-0.7,0.2-1.1,0.2l0,0c-0.2,0-0.4,0-0.5,0
		c-0.9,0-1.9-0.2-2.7-0.6l-2.2-1.2c-1.6-1.1-2.6-2.8-2.7-4.7v-20c0-0.6,0.1-1.1,0.3-1.7c0.1-0.2,0.2-0.4,0.3-0.6
		c0.1-0.1,0.1-0.2,0.2-0.3l7.6,4.4c-0.5,0.8-0.8,1.7-0.8,2.6v20c0,1.3,0.7,2,1.7,1.9h0.2C56.5,213.6,56.6,213.5,56.7,213.5z"/>
	<path class="st21" d="M77.2,218.6c-0.1-1.9-1.1-3.6-2.7-4.7l-2.2-1.3c-1.7-0.9-3.7-0.9-5.4,0l-17.3,10c-1.6,1-2.6,2.8-2.7,4.6v20
		c0.1,1.9,1.1,3.6,2.7,4.7l2.2,1.3c0.2,0.1,0.4,0.2,0.6,0.3l0.2,0.1c0.1,0,0.3,0.1,0.4,0.1l0.3,0.1l0.3,0.1c0.1,0,0.3,0,0.4,0h0.3
		h0.4H55h0.5h0.1c0.2,0,0.4-0.1,0.5-0.1h0.1c0.3-0.1,0.7-0.2,1-0.4l17.3-10c1.6-1,2.6-2.8,2.7-4.7L77.2,218.6z"/>
	<path class="st6" d="M77.2,218.1c-0.2-1.4-1.3-1.9-2.7-1.1l-17.3,10c-0.8,0.5-1.4,1.2-1.9,2l-7.6-4.4c0.5-0.8,1.1-1.5,1.9-2
		l17.3-10c1.7-0.9,3.7-0.9,5.4,0l2.2,1.3C76,214.8,77,216.4,77.2,218.1z"/>
	<path class="st18" d="M56.7,253.5c-0.1,0-0.1,0-0.2,0.1c-0.1,0-0.3,0.1-0.4,0.1c-0.3,0.1-0.7,0.2-1.1,0.2l0,0c-0.2,0-0.4,0-0.5,0
		c-0.9,0-1.9-0.2-2.7-0.6l-2.2-1.2c-1.6-1.1-2.6-2.8-2.7-4.7v-20c0-0.6,0.1-1.1,0.3-1.7c0.1-0.2,0.2-0.4,0.3-0.7
		c0.1-0.1,0.1-0.2,0.2-0.3l7.5,4.3c-0.5,0.8-0.8,1.7-0.8,2.6v20c0,1.3,0.7,2,1.7,1.9h0.2L56.7,253.5z"/>
	<path class="st22" d="M77.2,258.6c-0.1-1.9-1.1-3.6-2.7-4.6l-2.2-1.3c-1.7-0.8-3.7-0.8-5.4,0l-17.3,10c-0.8,0.5-1.5,1.2-1.9,2
		c-0.5,0.8-0.7,1.7-0.7,2.7v20c0.1,1.9,1.1,3.6,2.7,4.7l2.2,1.3c0.2,0.1,0.4,0.2,0.6,0.3l0.2,0.1l0.4,0.1l0.3,0.1l0.3,0.1h0.4h0.3
		H55h0.5h0.1l0.5-0.1h0.1c0.3-0.1,0.7-0.2,1-0.4l17.3-10c1.6-1,2.6-2.8,2.7-4.6L77.2,258.6z"/>
	<path class="st10" d="M77.2,258.1c-0.2-1.4-1.3-1.9-2.7-1.1l-17.3,10c-0.8,0.5-1.4,1.2-1.9,2l-7.6-4.4c0.5-0.8,1.1-1.5,1.9-2
		l17.3-10c1.7-0.9,3.7-0.9,5.4,0l2.2,1.3C76,254.9,77,256.4,77.2,258.1z"/>
	<path class="st23" d="M56.7,293.5l-0.2,0.1c-0.1,0-0.3,0.1-0.4,0.1c-0.3,0.1-0.7,0.2-1.1,0.2l0,0c-0.2,0-0.4,0-0.5,0
		c-0.9,0-1.9-0.2-2.7-0.6l-2.2-1.2c-1.6-1.1-2.6-2.8-2.7-4.7v-20c0-0.6,0.1-1.1,0.3-1.7c0.1-0.2,0.2-0.4,0.3-0.7
		c0.1-0.1,0.1-0.2,0.2-0.3l7.5,4.4c-0.5,0.8-0.8,1.7-0.8,2.6v20c0,1.3,0.7,2,1.7,1.9h0.2L56.7,293.5z"/>
	<path class="st4" d="M77.2,298.5c-0.1-1.9-1.1-3.6-2.7-4.7l-2.2-1.3c-1.7-0.9-3.7-0.9-5.4,0l-17.3,10c-1.6,1-2.6,2.8-2.7,4.7v20
		c0.1,1.9,1.1,3.6,2.7,4.7l2.2,1.3c0.2,0.1,0.4,0.2,0.6,0.3l0.2,0.1c0.1,0,0.3,0.1,0.4,0.1s0.2,0,0.3,0.1c0.1,0,0.2,0.1,0.3,0.1h0.4
		h0.3c0.2,0,0.3,0,0.4,0H55l0.5-0.1h0.1c0.2,0,0.4-0.1,0.5-0.1h0.1c0.3-0.1,0.7-0.2,1-0.4l17.3-10c1.6-1,2.6-2.8,2.7-4.7L77.2,298.5
		z"/>
	<path class="st24" d="M77.2,298.1c-0.2-1.4-1.3-1.9-2.7-1.1l-17.3,10c-0.8,0.5-1.4,1.2-1.9,2l-7.6-4.4c0.5-0.8,1.1-1.5,1.9-2
		l17.3-10c1.7-0.9,3.7-0.9,5.4,0l2.2,1.3C76,294.8,77,296.4,77.2,298.1z"/>
	<path class="st25" d="M56.7,333.4c-0.1,0-0.1,0.1-0.2,0.1l-0.4,0.1c-0.3,0.1-0.7,0.2-1.1,0.2l0,0h-0.5c-0.9,0-1.9-0.2-2.7-0.6
		l-2.2-1.2c-1.6-1.1-2.6-2.8-2.7-4.7v-20c0-0.6,0.1-1.1,0.3-1.7c0.1-0.2,0.2-0.4,0.3-0.7c0.1-0.1,0.1-0.2,0.2-0.3l7.5,4.4
		c-0.5,0.8-0.8,1.7-0.8,2.6v20c0,1.3,0.7,2,1.7,1.9h0.2C56.5,333.5,56.6,333.5,56.7,333.4z"/>
	<path class="st26" d="M303,48.3c-0.1-1.9-1.1-3.6-2.7-4.7l-2.2-1.3c-1.7-0.9-3.7-0.9-5.4,0l-17.3,10c-1.6,1-2.6,2.7-2.7,4.6v20
		c0.1,1.9,1.1,3.6,2.7,4.7l2.2,1.3c0.2,0.1,0.4,0.2,0.6,0.3l0.2,0.1c0.1,0,0.3,0.1,0.4,0.1s0.2,0,0.3,0.1c0.1,0,0.2,0.1,0.3,0.1h0.4
		h0.9l0.5-0.1h0.1c0.2,0,0.4-0.1,0.5-0.1h0.1c0.3-0.1,0.7-0.2,1-0.4l17.3-10c1.6-1.1,2.6-2.8,2.6-4.7V48.3z"/>
	<path class="st6" d="M303,47.8c-0.2-1.4-1.3-1.9-2.6-1.1l-17.4,10c-0.8,0.5-1.4,1.2-1.9,2l-7.6-4.4c0.5-0.8,1.1-1.5,1.9-2l17.3-10
		c1.7-0.9,3.7-0.9,5.4,0l2.2,1.3C301.8,44.6,302.8,46.1,303,47.8z"/>
	<path class="st18" d="M282.5,83.2c-0.1,0-0.1,0.1-0.2,0.1l-0.4,0.1c-0.3,0.1-0.7,0.2-1.1,0.2c0,0,0,0,0,0h-0.5
		c-0.9,0-1.9-0.2-2.7-0.6l-2.2-1.3c-1.6-1-2.6-2.8-2.7-4.7V57c0-0.6,0.1-1.1,0.3-1.7c0.1-0.2,0.2-0.4,0.3-0.7
		c0.1-0.1,0.1-0.2,0.2-0.3l7.6,4.4c-0.5,0.8-0.8,1.7-0.8,2.7v20c0,1.3,0.7,2,1.7,1.9h0.2C282.3,83.2,282.4,83.2,282.5,83.2z"/>
	<path class="st20" d="M303,88.3c-0.1-1.9-1.1-3.6-2.7-4.7l-2.2-1.3c-1.7-0.8-3.7-0.8-5.4,0l-17.3,10c-0.8,0.5-1.5,1.2-1.9,2
		c-0.5,0.8-0.7,1.7-0.8,2.6v20c0.1,1.9,1.1,3.6,2.7,4.7l2.2,1.3c0.2,0.1,0.4,0.2,0.6,0.3l0.2,0.1l0.4,0.1l0.3,0.1l0.3,0.1h0.4h0.3
		h0.6h0.5h0.1c0.2,0,0.4-0.1,0.5-0.1h0.1c0.3-0.1,0.7-0.2,1-0.4l17.3-10c1.6-1,2.6-2.8,2.7-4.7L303,88.3z"/>
	<path class="st6" d="M303,87.8c-0.2-1.4-1.3-1.9-2.6-1.1l-17.4,10c-0.8,0.5-1.4,1.2-1.9,2l-7.6-4.4c0.5-0.8,1.1-1.5,1.9-2l17.3-10
		c1.7-0.9,3.7-0.9,5.4,0l2.2,1.3C301.8,84.6,302.8,86.1,303,87.8z"/>
	<path class="st18" d="M282.5,123.2l-0.2,0.1l-0.4,0.1c-0.3,0.1-0.7,0.2-1.1,0.2c0,0,0,0,0,0c-0.2,0-0.4,0-0.5,0
		c-0.9,0-1.9-0.2-2.7-0.6l-2.2-1.3c-1.6-1-2.6-2.8-2.7-4.7V97c0-0.6,0.1-1.1,0.3-1.7c0.1-0.2,0.2-0.4,0.3-0.7
		c0.1-0.1,0.1-0.2,0.2-0.3l7.6,4.4c-0.5,0.8-0.8,1.7-0.8,2.7v20c0,1.3,0.7,2,1.7,1.9h0.2C282.3,123.2,282.4,123.2,282.5,123.2z"/>
	<path class="st4" d="M303,128.3c-0.1-1.9-1.1-3.6-2.7-4.7l-2.2-1.3c-1.7-0.9-3.7-0.9-5.4,0l-17.3,10c-1.6,1-2.6,2.8-2.7,4.7v20
		c0.1,1.9,1.1,3.6,2.7,4.7l2.2,1.3c0.2,0.1,0.4,0.2,0.6,0.3l0.2,0.1c0.1,0.1,0.3,0.1,0.4,0.1l0.3,0.1h0.3h0.4h0.9
		c0.2,0,0.3,0,0.5-0.1h0.1l0.5-0.1h0.1c0.3-0.1,0.7-0.2,1-0.4l17.3-10c1.6-1,2.6-2.8,2.7-4.7L303,128.3z"/>
	<path class="st10" d="M303,127.8c-0.2-1.4-1.3-1.9-2.6-1.1l-17.3,10c-0.8,0.5-1.4,1.2-1.9,2l-7.6-4.4c0.5-0.8,1.1-1.5,1.9-2
		l17.3-10c1.7-0.9,3.7-0.9,5.4,0l2.2,1.3C301.8,124.6,302.8,126.1,303,127.8z"/>
	<path class="st23" d="M282.5,163.1l-0.2,0.1l-0.4,0.1c-0.3,0.1-0.7,0.2-1.1,0.2c0,0,0,0,0,0c-0.2,0-0.4,0-0.5,0
		c-0.9,0-1.9-0.2-2.7-0.6l-2.2-1.3c-1.6-1-2.6-2.8-2.7-4.7v-20c0-0.6,0.1-1.1,0.3-1.7c0.1-0.2,0.2-0.4,0.3-0.6l0.2-0.3l7.6,4.4
		c-0.5,0.8-0.8,1.7-0.8,2.6v20c0,1.3,0.7,2,1.7,1.9h0.2C282.3,163.2,282.4,163.2,282.5,163.1z"/>
	<path class="st11" d="M303,168.3c-0.1-1.9-1.1-3.6-2.7-4.7l-2.2-1.3c-1.7-0.9-3.7-0.9-5.4,0l-17.3,10c-1.6,1-2.6,2.8-2.7,4.7v20
		c0.1,1.9,1.1,3.6,2.7,4.6l2.2,1.3c0.2,0.1,0.4,0.2,0.6,0.3l0.2,0.1c0.1,0,0.3,0.1,0.4,0.1s0.2,0,0.3,0.1c0.1,0,0.2,0,0.3,0.1h0.4
		h0.7h0.2c0.2,0,0.3,0,0.5-0.1h0.1c0.2,0,0.4-0.1,0.5-0.1h0.1c0.3-0.1,0.7-0.2,1-0.4l17.3-10c1.6-1,2.6-2.8,2.7-4.7L303,168.3z"/>
	<path class="st24" d="M303,167.8c-0.2-1.4-1.3-1.9-2.6-1.1l-17.3,10c-0.8,0.5-1.4,1.2-1.9,2l-7.6-4.4c0.5-0.8,1.1-1.5,1.9-2
		l17.3-10c1.7-0.9,3.7-0.9,5.4,0l2.2,1.3C301.8,164.6,302.8,166.1,303,167.8z"/>
	<path class="st25" d="M282.5,203.1c-0.1,0-0.1,0-0.2,0.1c-0.1,0-0.3,0.1-0.4,0.1c-0.3,0.1-0.7,0.2-1.1,0.2h0c-0.2,0-0.4,0-0.5,0
		c-0.9,0-1.9-0.2-2.7-0.6l-2.2-1.3c-1.6-1-2.6-2.8-2.7-4.7v-20c0-0.6,0.1-1.1,0.3-1.7c0.1-0.2,0.2-0.4,0.3-0.7
		c0.1-0.1,0.1-0.2,0.2-0.3l7.6,4.4c-0.5,0.8-0.8,1.7-0.8,2.6v20c0,1.3,0.7,2,1.7,1.9h0.2L282.5,203.1z"/>
</g>
<g id="freepik--Types--inject-34">
	<g id="freepik--type-slab--inject-34">
		<path class="st26" d="M189.5,258.3l-8-4.6c-1.8-1.1-2.9-3.1-3-5.2V181c0.1-2.1,1.2-4,3-5.2l58.4-33.7c1.9-1,4.1-1,6,0l8,4.6
			c1.8,1.1,2.9,3.1,3,5.2v67.5c-0.1,2.1-1.2,4-3,5.2l-58.4,33.7C193.6,259.3,191.4,259.3,189.5,258.3z"/>
		<path class="st27" d="M195.4,183.9l58.4-33.7c1.6-0.9,3-0.2,3,1.7v67.5c-0.1,2.1-1.2,4-3,5.2l-58.4,33.7c-1.6,1-3,0.2-3-1.7v-67.5
			C192.6,187,193.7,185.1,195.4,183.9z"/>
		<path class="st20" d="M195.1,258.5c-1.8,0.8-3.8,0.7-5.6-0.2l-8-4.6c-1.8-1.1-2.9-3.1-3-5.2V181c0-1,0.3-2.1,0.9-2.9l14,8.1
			c-0.5,0.9-0.8,1.9-0.9,2.9v67.5C192.5,258.3,193.6,259.1,195.1,258.5z"/>
		<path class="st3" d="M210.4,197.8l-2.5,1.5v-5l8.1-4.7l9,26.5l2.2-1.3v5.1l-8.8,5.1v-5.1l2.9-1.6c-0.6-1.5-1.1-3.2-1.5-4.5
			l-11.8,6.8c-0.4,1.8-1,4.1-1.6,6.3l2.8-1.6v5.1l-8.8,5.1v-5.1l2.2-1.3L210.4,197.8z M218.3,209.6c-1.2-3.7-2.4-7.6-4.3-13.4
			c-2,8.3-3.4,13.7-4.6,18.6L218.3,209.6z"/>
		<path class="st3" d="M249.1,202.6v4.6l-5.6,3.2c0,0.7-0.4-4-0.4-3.3c-0.9,3.2-3,5.9-5.8,7.6c-5,2.9-8.7-0.1-8.7-8.7
			s3.9-15.8,8.8-18.6c2.4-1.4,4.6-1.1,5.9,1.1v-4l5.8-3.4v4.7l-2.5,1.5v16.7L249.1,202.6z M231.8,204.5c0,5.2,2.4,7.4,5.6,5.6
			c3.6-2.1,5.7-7.2,5.9-11.8c0.1-5-1.9-7.9-5.9-5.6C234.3,194.4,231.8,199.3,231.8,204.5z"/>
	</g>
	<g id="freepik--type-script--inject-34">
		<path class="st26" d="M189.5,173.4l-8-4.6c-1.8-1.1-2.9-3.1-3-5.2V96.2c0.1-2.1,1.2-4,3-5.2l58.4-33.7c1.9-1,4.1-1,6,0l8,4.6
			c1.8,1.1,2.9,3.1,3,5.2v67.5c-0.1,2.1-1.2,4-3,5.2l-58.4,33.7C193.6,174.4,191.4,174.4,189.5,173.4z"/>
		<path class="st27" d="M195.4,99.1l58.4-33.7c1.6-1,3-0.2,3,1.7v67.5c-0.1,2.1-1.2,4-3,5.2l-58.4,33.7c-1.6,1-3,0.2-3-1.7v-67.5
			C192.6,102.1,193.7,100.2,195.4,99.1z"/>
		<path class="st20" d="M195.1,173.6c-1.8,0.8-3.8,0.7-5.6-0.2l-8-4.6c-1.8-1.1-2.9-3.1-3-5.2V96.2c0-1,0.3-2.1,0.9-2.9l14,8.1
			c-0.5,0.9-0.8,1.9-0.9,3v67.5C192.5,173.5,193.6,174.3,195.1,173.6z"/>
		<path class="st12" d="M223.5,125.3l4.2-2.5c0.8-0.4,1.2,0,1.2,0.8c0,0.4-0.1,0.9-0.3,1.3l-4.6,2.7l1.8,8.4
			c0.2,1.4-0.3,2.9-1.4,3.9c-0.9,0.5-1.3,0.1-1.3,0.1l-2.3-10.5l-8.3,4.8l-1.6,7.7c-0.9,4.2-2.8,10.1-6.6,12.2
			c-2.5,1.5-4.1,0.3-4.1-3.5c0.1-7.3,4-14,10.2-17.8l4.7-23.3c0.2-0.9,0.4-1.7,0.7-2.5l-0.9-4.3c-0.2-1.4,0.4-2.7,1.5-3.6
			c0.9-0.5,1.3-0.1,1.3-0.1L223.5,125.3z M208.5,142l1.3-6.3c-4.8,3-7.8,8.2-7.8,13.9c0,2.4,1,3.1,2.3,2.3
			C206.6,150.7,207.9,145,208.5,142z M213.1,131.2l7.1-4.1l-3.2-17L213.1,131.2z"/>
		<path class="st12" d="M248.5,110.4c0.3-0.2,0.6,0.2,0.6,2.3c0,5.5-1.6,10.3-4.5,11.9c-2.2,1.3-3.7,0.5-4.3-1.9
			c-0.8,3-2.2,5.7-4.1,6.8c-3.6,2.1-5.7,0-5.7-8.2s2.9-12.9,6.5-15c1.6-1,2.6-0.9,3.2-0.4c0.2-0.9,0.7-1.8,1.5-2.3
			c0.9-0.5,1.2,0,1.2,0V118c0,3.9,0.9,5.2,2.2,4.5c1.8-1,3-4.3,3-11.5C248.1,110.7,248.3,110.5,248.5,110.4z M239.9,118.7v-6.8
			c0-3.3-1.3-4.5-2.7-3.7c-2.1,1.2-3.7,3.1-3.7,11.5s1.4,8.7,3,7.8C237.6,126.7,239.9,123.1,239.9,118.7z"/>
	</g>
	<g id="freepik--type-sans--inject-34">
		<path class="st26" d="M104.2,307.6l-8-4.6c-1.8-1.1-2.9-3.1-3-5.2v-67.5c0.1-2.1,1.2-4,3-5.2l58.4-33.7c1.9-1,4.1-1,6,0l8,4.6
			c1.8,1.1,2.9,3.1,3,5.2v67.5c-0.1,2.1-1.2,4-3,5.2l-58.4,33.7C108.3,308.5,106.1,308.5,104.2,307.6z"/>
		<path class="st27" d="M110.1,233.2l58.4-33.7c1.6-0.9,3-0.2,3,1.7v67.5c-0.1,2.1-1.2,4-3,5.2l-58.4,33.7c-1.7,1-3,0.2-3-1.7v-67.5
			C107.3,236.3,108.4,234.3,110.1,233.2z"/>
		<path class="st20" d="M109.8,307.8c-1.8,0.8-3.8,0.7-5.6-0.2l-8-4.6c-1.8-1.1-2.9-3.1-3-5.2v-67.5c0-1,0.3-2,0.9-2.9l14,8.1
			c-0.5,0.9-0.8,1.9-0.9,3v67.5C107.2,307.6,108.3,308.4,109.8,307.8z"/>
		<path class="st3" d="M135.9,266.4l-14.2,8.2l-2.4,9.9l-4.4,2.6l11.7-48.7l4.4-2.6l11.7,35.1l-4.4,2.6L135.9,266.4z M134.4,261.8
			l-5.6-16.7l-5.6,23.1L134.4,261.8z"/>
		<path class="st3" d="M163.8,239.8v19.1l-3.8,2.2v-4.3c-1.5,4.2-4.3,7.6-6.8,9c-4.4,2.5-7.6,0.5-7.6-5.7s3.7-12.6,8.2-15.2
			c1.9-1.1,4-1.7,6.2-1.8v-1c0-4-1.2-7.5-5.3-5.1c-2,1.2-4,3.5-5.8,6l-1.4-3.6c2.9-4,5.5-6.4,7.8-7.7
			C160.8,228.4,163.8,232,163.8,239.8z M160,251.2V247c-2,0.3-3.9,1-5.6,2c-3,1.9-4.9,5.2-5,8.7c0,3.4,2,4.4,4.6,2.9
			C157.2,258.4,159.4,255,160,251.2z"/>
	</g>
	<g id="freepik--type-serif--inject-34">
		<path class="st26" d="M104.2,222.7l-8-4.6c-1.8-1.1-2.9-3.1-3-5.2v-67.5c0.1-2.1,1.2-4,3-5.2l58.4-33.7c1.9-1,4.1-1,6,0l8,4.6
			c1.8,1.2,2.9,3.1,3,5.2v67.5c-0.1,2.1-1.2,4-3,5.2l-58.4,33.7C108.3,223.7,106.1,223.7,104.2,222.7z"/>
		<path class="st27" d="M110.1,148.3l58.4-33.7c1.6-1,3-0.2,3,1.7v67.5c-0.1,2.1-1.2,4-3,5.2l-58.4,33.7c-1.7,1-3,0.2-3-1.7v-67.5
			C107.3,151.4,108.4,149.5,110.1,148.3z"/>
		<path class="st20" d="M109.8,222.9c-1.8,0.8-3.8,0.7-5.6-0.2l-8-4.6c-1.8-1.1-2.9-3.1-3-5.2v-67.5c0-1,0.3-2,0.9-2.9l14,8.1
			c-0.5,0.9-0.8,1.9-0.9,2.9V221C107.2,222.7,108.3,223.5,109.8,222.9z"/>
		<path class="st3" d="M133.9,175.4l-10.8,6.3l-1.9,7.9c-0.4,1.4-0.6,2.8-0.7,4.2c-0.1,0.5,0.2,1.1,0.6,1.4c0.4,0.3,1.3,0.1,2.6-0.6
			v1.2l-8.8,5.1v-1.2c0.9-0.7,1.7-1.6,2.3-2.6c1-2.4,1.8-5,2.3-7.6l9.8-41.2l0.7-0.4l9.8,30.2c0.8,2.4,1.5,3.9,2.1,4.4
			s1.5,0.5,2.7-0.1v1.2l-11,6.4v-1.2c0.9-0.5,1.7-1.3,2.3-2.2c0.4-0.6,0.6-1.4,0.6-2.1c-0.1-1.3-0.4-2.7-0.8-3.9L133.9,175.4z
			 M133.4,173.4l-4.8-14.7l-4.9,20.2L133.4,173.4z"/>
		<path class="st3" d="M157.1,172.2c-1.9,3.4-3.1,5.5-3.6,6.1c-0.6,0.9-1.4,1.6-2.4,2.2c-1.3,0.8-2.4,0.7-3.2-0.2s-1.3-2.4-1.3-4.7
			c0-1.4,0.2-2.7,0.6-4c0.7-2.1,1.7-4,2.9-5.8c2.2-3,4.5-5.9,7-8.7V156c0-2.9-0.3-4.7-0.9-5.5s-1.5-0.8-2.6-0.1
			c-0.9,0.5-1.6,1.3-2.1,2.3c-0.5,0.9-0.8,1.9-0.8,2.9v1.8c0,0.9-0.1,1.7-0.5,2.5c-0.2,0.6-0.7,1.2-1.3,1.5
			c-0.4,0.3-0.9,0.3-1.2-0.1c-0.4-0.6-0.6-1.3-0.5-2c0.1-2.1,0.7-4.2,1.8-6.1c1.2-2.2,2.9-4,5.1-5.2c1.7-1,3.1-1.3,4.1-1.1
			c0.9,0.3,1.6,1.1,1.8,2.1c0.3,1.8,0.5,3.6,0.4,5.4v9.9c0,2.8,0,4.4,0.1,5c0,0.4,0.1,0.8,0.3,1.1c0.2,0.1,0.4,0.1,0.6,0
			c0.2-0.1,0.4-0.3,0.6-0.6c0.6-1.1,1.2-2.2,1.7-3.3v1.8c-1.5,4.1-3,6.5-4.4,7.3c-0.5,0.4-1.2,0.3-1.6-0.1c0,0,0,0,0,0
			C157.4,175.1,157.2,174,157.1,172.2z M157.1,170.2v-11.1c-2.1,2.5-3.4,4.1-4,5c-1,1.3-1.7,2.8-2.3,4.3c-0.5,1.2-0.7,2.5-0.7,3.8
			c-0.1,1.2,0.2,2.3,0.9,3.3c0.5,0.7,1.4,0.8,2.1,0.3C154.1,175.1,155.4,173.3,157.1,170.2L157.1,170.2z"/>
	</g>
</g>
<g id="freepik--light-bulb--inject-34">
	<path class="st3" d="M409.8,211.1c0,4.9-4,8.9-8.9,8.9c-4.9,0-8.9-4-8.9-8.9c0-4.9,4-8.9,8.9-8.9
		C405.8,202.2,409.8,206.2,409.8,211.1C409.8,211.1,409.8,211.1,409.8,211.1z"/>
	<path class="st4" d="M390.3,211.6c-5.9-3.4-5.9-8.9,0-12.3c6.7-3.4,14.6-3.4,21.3,0c5.9,3.4,5.9,8.9,0,12.3
		C404.9,215,397,215,390.3,211.6z"/>
	<path class="st3" d="M390,208.5c-6.1-3.5-6.1-9.2,0-12.7c6.9-3.5,15.1-3.5,22,0c6.1,3.5,6.1,9.2,0,12.7
		C405,212,396.9,212,390,208.5z"/>
	<path class="st4" d="M389.6,205.2c-6.3-3.6-6.3-9.5,0-13.1c7.1-3.6,15.5-3.6,22.6,0c6.3,3.6,6.3,9.5,0,13.1
		C405.1,208.8,396.7,208.8,389.6,205.2z"/>
	<path class="st3" d="M389.3,201.8c-6.4-3.7-6.4-9.7,0-13.5c7.3-3.7,16-3.7,23.3,0c6.5,3.7,6.5,9.8,0,13.5
		C405.3,205.5,396.6,205.5,389.3,201.8z"/>
	<path class="st4" d="M389,198.2c-6.6-3.8-6.6-10,0-13.8c7.5-3.8,16.3-3.8,23.8,0c6.6,3.8,6.6,10,0,13.8
		C405.4,202,396.5,202,389,198.2z"/>
	<path class="st12" d="M400.9,94.7c-23.3,0-42.3,18.9-42.3,42.2c0,33.6,27.7,39.2,27.7,52.8c0.2,2.6,1.9,4.9,4.3,6
		c6.5,3.3,14.2,3.3,20.7,0c2.4-1.1,4-3.4,4.3-6l0,0c0-13.5,27.7-19.1,27.7-52.8C443.2,113.6,424.3,94.7,400.9,94.7z"/>
	<path class="st18" d="M393.2,193.9c-4.3-2.5-4.3-6.5,0-9c4.9-2.5,10.7-2.5,15.5,0c4.3,2.5,4.3,6.5,0,9
		C403.8,196.4,398.1,196.4,393.2,193.9z"/>
	<path class="st9" d="M406.6,188.4c-0.8,0-1.4-0.6-1.4-1.4c0-8.1,1-16.3,3-24.2c0.5-2.3,1.3-4.5,2.1-6.7c-1.3-0.5-2.5-1.1-3.7-1.8
		c-2.1-1.3-4.1-2.9-5.7-4.7c-1.6,1.8-3.4,3.4-5.5,4.6c-1.2,0.7-2.4,1.3-3.7,1.8c0.9,2.2,1.6,4.5,2.1,6.8c1.9,7.9,2.9,16,2.9,24.2
		c0,0.8-0.7,1.4-1.5,1.4c-0.8,0-1.4-0.6-1.4-1.4c0,0,0,0,0-0.1c0-7.9-1-15.8-2.9-23.4c-0.5-2.3-1.2-4.5-2.1-6.7
		c-2.9,0.6-5.9-0.3-8-2.4c-1.6-1.6-1.9-4.1-0.6-5.9c0.9-1.3,2.4-1.9,3.9-1.6c2.2,0.5,4.5,2.9,6.3,6.6c1.2-0.4,2.3-0.9,3.3-1.6
		c2-1.2,3.8-2.8,5.4-4.6c-1.8-2.3-2.5-5.2-2.1-8.1c0.7-2.1,2.9-3.3,5.1-2.6c1.3,0.4,2.3,1.4,2.6,2.6c0.4,2.9-0.3,5.8-2.1,8.1
		c1.6,1.8,3.4,3.4,5.5,4.6c1,0.7,2.2,1.2,3.3,1.6c1.9-3.8,4.1-6.1,6.4-6.6c1.5-0.3,3,0.4,3.9,1.6c1.3,1.9,1,4.4-0.6,5.9
		c-2.1,2-5.1,2.9-8,2.4c-0.9,2.2-1.6,4.4-2.2,6.7c-1.9,7.7-2.8,15.5-2.9,23.4C408.1,187.7,407.5,188.3,406.6,188.4
		C406.7,188.4,406.7,188.4,406.6,188.4L406.6,188.4z M383.4,149.6c-0.3,0-0.7,0.2-0.8,0.5c-0.7,1,0.1,2,0.4,2.3
		c1.2,1.2,2.9,1.7,4.6,1.5c-1.5-2.9-3-4.1-4-4.3L383.4,149.6z M414.4,154c1.7,0.2,3.4-0.4,4.6-1.5c0.7-0.6,0.8-1.5,0.4-2.3
		c-0.4-0.5-0.7-0.5-1-0.5C417.4,149.8,415.9,151.3,414.4,154z M400.9,139.1c-0.5-0.1-1,0.2-1.1,0.7c-0.2,1.7,0.2,3.3,1.1,4.7
		c0.9-1.4,1.3-3.1,1.1-4.7C401.9,139.4,401.7,139.1,400.9,139.1z"/>
	<path class="st12" d="M400.9,85.4c-1.6,0-2.9-1.3-2.9-2.9V66c0-1.6,1.3-2.9,2.9-2.9s2.9,1.3,2.9,2.9v16.5
		C403.8,84.1,402.5,85.4,400.9,85.4z"/>
	<path class="st12" d="M374.8,92.4c-1.4,0.8-3.1,0.3-3.9-1c0,0,0,0,0,0L362.6,77c-0.8-1.4-0.3-3.1,1.1-3.9s3.1-0.3,3.9,1.1l8.3,14.4
		C376.7,89.9,376.2,91.6,374.8,92.4C374.8,92.4,374.8,92.4,374.8,92.4z"/>
	<path class="st12" d="M355.7,111.6c-0.8,1.4-2.5,1.9-3.9,1.1c0,0,0,0,0,0l-14.4-8.3c-1.4-0.7-1.9-2.5-1.2-3.9
		c0.7-1.4,2.5-1.9,3.9-1.2c0.1,0,0.1,0.1,0.2,0.1l14.4,8.3C356,108.4,356.5,110.2,355.7,111.6z"/>
	<path class="st12" d="M348.7,137.7c0,1.6-1.3,2.9-2.9,2.9h-16.5c-1.6,0-2.9-1.3-2.9-2.9c0-1.6,1.3-2.9,2.9-2.9h16.5
		C347.4,134.8,348.7,136.1,348.7,137.7z"/>
	<path class="st12" d="M355.7,163.8c0.8,1.4,0.3,3.1-1.1,3.9l-14.4,8.3c-1.4,0.8-3.1,0.3-3.9-1c0,0,0,0,0,0c-0.8-1.4-0.3-3.1,1-3.9
		c0,0,0,0,0,0l14.4-8.3C353.2,162,354.9,162.4,355.7,163.8C355.7,163.8,355.7,163.8,355.7,163.8z"/>
	<path class="st12" d="M446.2,163.8c0.8-1.4,2.5-1.8,3.9-1.1l14.4,8.3c1.4,0.7,1.9,2.5,1.2,3.9c-0.7,1.4-2.5,1.9-3.9,1.2
		c-0.1,0-0.1-0.1-0.2-0.1l-14.4-8.3C445.9,166.9,445.4,165.2,446.2,163.8z"/>
	<path class="st12" d="M453.2,137.7c0-1.6,1.3-2.9,2.9-2.9h16.6c1.6,0,2.9,1.3,2.9,2.9c0,1.6-1.3,2.9-2.9,2.9H456
		C454.5,140.6,453.2,139.3,453.2,137.7z"/>
	<path class="st12" d="M446.2,111.6c-0.8-1.4-0.3-3.1,1-3.9l14.4-8.3c1.3-0.9,3.1-0.5,4,0.9c0.9,1.3,0.5,3.1-0.9,4
		c-0.1,0-0.1,0.1-0.2,0.1l-14.4,8.3C448.7,113.4,447,112.9,446.2,111.6z"/>
	<path class="st12" d="M427.1,92.4c-1.4-0.8-1.8-2.6-1-3.9c0,0,0,0,0,0l8.3-14.4c0.9-1.3,2.6-1.7,4-0.9c1.3,0.8,1.7,2.4,1,3.8
		L431,91.4C430.2,92.8,428.5,93.2,427.1,92.4C427.1,92.5,427.1,92.5,427.1,92.4z"/>
</g>
<g id="freepik--Character--inject-34" class="st1">
	<g id="freepik--character--inject-34" class="st28">
		<path class="st11" d="M418.7,154.6h-35.4l0,0v-34.5c0-9,7.3-16.2,16.2-16.2h2.9c9,0,16.2,7.3,16.2,16.2L418.7,154.6L418.7,154.6
			L418.7,154.6z"/>
		<path class="st11" d="M411.5,313.3v-1.1c-0.5,1.3-2.5,7.1-5.7,10c-2.5,2.3-5.9,4.9-6.8,7.5s4.8,3.5,7.1,3.1c2.7-0.5,6.2-2,8.2-4.4
			c1.4-1.7,2.2-3.6,3.2-4.9s3.2-2.8,3.7-4.3c0.3-0.8,0-2.6-0.5-4.2s-0.8-3-1.2-2.8v0.8c-1.1,0.9-2.6,1.4-4,1.4
			C414.4,314.4,411.5,314.1,411.5,313.3z"/>
		<path class="st16" d="M403.6,324.1l2.3-2c2.2-2,3.9-5.4,4.9-7.8c0.6-1.3,0.8-2.7,0.8-4.2v-4.6h8v7.4l0,0v0.2l0,0
			c-0.4,1.7-4,6-6.1,8.9c-1.4,1.9-4,4.4-7.2,4.8C403.2,327.3,401.6,326.4,403.6,324.1z"/>
		<path class="st11" d="M380.5,305.4v-1.1c-0.5,1.3-2.5,7.1-5.7,10c-2.5,2.3-5.9,4.9-6.8,7.5s4.8,3.5,7.1,3.1c2.7-0.5,6.2-2,8.2-4.4
			c1.4-1.7,2.2-3.6,3.2-4.9s3.2-2.8,3.7-4.3c0.3-0.8,0-2.6-0.5-4.2s-0.8-3-1.2-2.8v0.9c-1.1,0.9-2.6,1.4-4,1.3
			C383.3,306.5,380.5,306.3,380.5,305.4z"/>
		<path class="st16" d="M372.5,316.2c0.8-0.7,1.6-1.4,2.3-2c2.2-2,3.9-5.4,4.9-7.8c0.6-1.3,0.8-2.8,0.8-4.2v-4.5h8v7.4l0,0v0.2l0,0
			c-0.4,1.6-4,6-6.1,8.9c-1.4,1.9-4,4.4-7.2,4.8S370.6,318.5,372.5,316.2z"/>
		<path class="st3" d="M417.9,189.6c6.2,13.5-0.2,60.9-0.2,60.9c0.2,2.2,2.7,6.5,3.6,16.1c1.1,11.4-1.7,39.9-1.7,39.9
			c-2.5,1.4-5.4,1.5-8,0.3c0,0-7.6-43-9-54.3c-1.2-9.9-3.6-31.6-3.6-31.6l-6.8,31.5c1,3.2,1.7,6.4,2.1,9.7
			c0.6,6.6-5.8,37.6-5.8,37.6s-2.8,1-8,0.2c0,0-2.3-41.1-2.9-49.1c-1-13.4,2.6-55.4,5-63.4L417.9,189.6z"/>
		<path class="st11" d="M398.9,221l-2-12.5c0,0-8.5-1.8-12.3-5.4c2.7,3.1,6.1,5.4,10,6.7l2.2,9.6l-3.9,29.2L398.9,221z"/>
		<path class="st16" d="M393.9,142.4c-3.9-0.3-7.8,1.4-10.1,4.6l-15.4,20c0,0-18-9-18.8-10s-0.4-3.2-0.1-4.4s0.6-3.8,0.9-4.6
			c0.5-1.3-1.5-0.9-2.6,0.3s-1.6,3.6-2.2,4s-4.8-4.5-6.9-6.9s-3-4-4.4-3.1c-1,0.7-0.4,2.1,1.1,4.1c0.7,0.9,1.3,1.8,1.9,2.7
			c0.2,0.4-0.4,0.7-0.6,0.9c-0.4,0.4-1.1,1-1.2,1.5c0,0.3,0,0.6,0,0.9c-0.2,0.7-1,1-1.3,1.6c-0.2,0.5,0,1-0.1,1.5
			c-0.1,0.3-0.2,0.6-0.3,0.9c0,0.7,0.2,1.3,0.7,1.8c1.5,1.7,3.5,2.4,5.4,3.4c1.6,0.9,3.2,1.3,5,2.1s23.1,15.5,26.4,13.7
			s20.7-22,20.7-22C397,147.1,393.9,142.4,393.9,142.4z"/>
		<path class="st29" d="M407,142.8L407,142.8c7.9,0.5,8.5,4.4,10.4,8.5c1.5,3.2,1.6,6.9,0.4,10.2l-5.5,15.9c0,0,2.6,6.2,5.6,12.1
			c-13.8,7.7-31.1,3.7-35.3-2c-0.2-1.2,0.9-10.5,1.5-16.6c-2.4-6.1-3.1-10-2-14c1.9-7.5,9.3-14.8,12.6-14.5L407,142.8z"/>
		<path class="st11" d="M419,109.5l-2.4,3.8c1,0.7,2.4,0.5,3.1-0.5c0,0,0-0.1,0.1-0.1C420.4,111.6,420.1,110.2,419,109.5z"/>
		<path class="st11" d="M421.6,113.9l-4.5-0.6c-0.2,1.2,0.6,2.3,1.7,2.6c0,0,0.1,0,0.1,0C420.3,116,421.4,115.1,421.6,113.9z"/>
		<path class="st16" d="M389.1,111c-1.9,1.1-4.2,5.8-4,15.7c0.2,8.4,2.9,10.4,4.3,11s4,0.2,6.5-0.2v5c0,0-3.5,4.1-3.3,6.4
			s5.1,2.8,8.4,0.6c2.1-1.5,4-3.5,5.4-5.7v-12.1c1.1,1.4,3.1,1.6,4.5,0.4c0,0,0,0,0,0c2.8-1.9,2.9-6.5,1.3-8.2s-5.2-1.1-5.8,1.2
			c0,0-4.1,0.2-9.5-2.8C392.6,120,389.7,115.8,389.1,111z"/>
		<path class="st11" d="M395.4,124.5c0,0.6,0.4,1.1,1,1.1c0,0,0,0,0,0c0.6,0,1.1-0.4,1.2-1c0-0.6-0.4-1.1-1-1.2
			C396,123.5,395.4,123.9,395.4,124.5C395.4,124.5,395.4,124.5,395.4,124.5z"/>
		<path class="st21" d="M394.2,131.6l-2.4,0.8c0.2,0.7,0.9,1.1,1.5,0.9c0,0,0,0,0.1,0C394,133,394.4,132.3,394.2,131.6z"/>
		<path class="st11" d="M386.8,121.3l2.1-1.5c-0.4-0.6-1.1-0.8-1.7-0.4c0,0,0,0-0.1,0C386.5,119.9,386.4,120.7,386.8,121.3z"/>
		<path class="st11" d="M387.3,123.8c0,0.6,0.4,1.1,1,1.1c0.6,0,1.1-0.4,1.1-1c0-0.6-0.4-1.1-1-1.1
			C387.8,122.8,387.3,123.2,387.3,123.8z"/>
		<polygon class="st21" points="392.4,123.2 392.2,129.5 388.9,128.5 		"/>
		<path class="st21" d="M395.9,137.5c2.7-0.4,8.2-1.9,9.1-4.1c-0.3,1.1-1,2.1-1.9,2.8c-1.6,1.4-7.1,3-7.1,3V137.5z"/>
		<path class="st18" d="M403.5,191.1c4.5-1,7.3-5.5,6.3-10c0-0.1,0-0.1,0-0.2c0-0.2-0.1-0.3-0.1-0.4c-0.4-1.2-1.6-2-2.8-1.9l0,0
			c1.8-1.2,3-3,3.5-5.2l1.7-10c0.2-1.6,0.1-3.3-0.4-4.9l5.6-6.4l1,0.7c0.8,2.8,0.8,5.8-0.2,8.6l-5.5,15.9c0,0,2.6,6.2,5.6,12.1
			c-9.1,4.9-19.9,5.6-29.5,2C393.4,192.4,398.5,192.2,403.5,191.1z"/>
		<path class="st16" d="M432.1,182.5c-7.2-29.4-12.5-39.1-21.2-39c-2.5,3-1.8,12.2,2.2,17.8c0,0,9,18.9,10.4,25.7
			c1.3,5.9,2.7,13.4,2.6,18.4c0,0.9-0.4,1.8-1,2.4c-1.6,1.8-1.6,3.2-2.7,5.2c-0.8,1.5-1.7,2.1-1.5,2.5c0.7,0.8,1.9,0.8,2.7,0.2
			c0.8-0.6,1.4-1.2,2-2c-0.3,1.9-0.8,3.7-1.6,5.4c-1.8,4.2-1.4,6.3,4.2,4.8c3.5-0.9,5.7-3.9,6.2-12.3c0.3-3.1,0.3-6.2,0.1-9.3
			C433.8,194.2,433.2,187.2,432.1,182.5z"/>
	</g>
</g>
</svg>
