<svg id="Layer_1" data-name="Layer 1" xmlns="http://www.w3.org/2000/svg" viewBox="0 0 592 592">
	<defs>
		<style>.cls-1{fill:#231f20;}.cls-2{fill:#fff;}</style>
	</defs>
	<title>logo</title>
	<path class="cls-1" d="M839,524.86a294.6,294.6,0,0,1-52.19,167.89c-1.07,1.56-2.15,3.1-3.26,4.63A295.57,295.57,0,0,1,543,820.86c-163.48,0-296-132.52-296-296C247,379.68,351.5,258.91,489.4,233.7q3.17-.58,6.36-1.09A297.62,297.62,0,0,1,543,228.86C706.46,228.86,839,361.38,839,524.86Z" transform="translate(-246.98 -228.86)"/><polygon class="cls-2" points="165.24 345.5 165.24 351 105.24 351 105.24 241 110.74 241 110.74 345.5 165.24 345.5"/>
	<rect class="cls-2" x="198.65" y="241" width="5.5" height="110"/>
	<polygon class="cls-2" points="305.57 241 305.57 351 300.07 351 300.07 303.27 243.06 250.15 243.06 351 237.56 351 237.56 241 243.06 241 243.06 242.63 300.07 295.75 300.07 241 305.57 241"/>
	<polygon class="cls-2" points="344.48 246.5 344.48 293.25 388.98 293.25 388.98 298.75 344.48 298.75 344.48 345.5 388.98 345.5 388.98 351 338.98 351 338.98 241 388.98 241 388.98 246.5 344.48 246.5"/>
	<path class="cls-2" d="M787.79,692.58c-1.07,1.56-2.15,3.1-3.26,4.63L663,558.77l0,0,0,0,63.7-55.9L490.4,233.53q3.17-.59,6.36-1.09l234.1,266.74,3.63,4.14-4.13,3.62-59.6,52.3Z" transform="translate(-246.98 -228.86)"/>
</svg>