<svg id="Layer_1" data-name="Layer 1" xmlns="http://www.w3.org/2000/svg" viewBox="0 0 110.17 112.25"><defs><style>.cls-1{fill:#fff;}.cls-2{fill:none;}</style></defs><title>logo-text</title><polygon class="cls-1" points="16.69 80.5 16.69 83.91 2.4 83.91 2.4 57.34 5.75 57.34 5.75 80.5 16.69 80.5"/><rect class="cls-1" x="24.64" y="57.34" width="3.35" height="26.57"/><polygon class="cls-1" points="52.13 57.34 52.13 83.91 48.79 83.91 48.79 74.47 37.25 61.64 37.25 83.91 33.91 83.91 33.91 57.34 37.25 57.34 37.25 57.74 48.79 70.57 48.79 57.34 52.13 57.34"/><polygon class="cls-1" points="61.4 60.76 61.4 68.92 69.95 68.92 69.95 72.33 61.4 72.33 61.4 80.5 69.95 80.5 69.95 83.91 58.05 83.91 58.05 57.34 69.95 57.34 69.95 60.76 61.4 60.76"/><polygon class="cls-1" points="101 100.54 101 103 99.36 103 78.43 78.82 78.44 78.81 78.43 78.8 93.6 65.3 70.85 39 74.62 39 96.62 64.43 97.48 65.43 96.5 66.3 82.31 78.93 101 100.54"/><path class="cls-2" d="M74.62,0H70.85L37.34-38.73c.5-.1,3-.19,3.55-.27Z" transform="translate(0 39)"/><path class="cls-2" d="M110.17,72.14c-.25.37-2.55.75-2.81,1.11l-8-9.25H101V61.54Z" transform="translate(0 39)"/><rect class="cls-2" y="39" width="101" height="64"/></svg>